<mxfile host="app.diagrams.net" agent="Mozilla/5.0 (Windows NT 10.0; Win64; x64) AppleWebKit/537.36 (KHTML, like Gecko) Chrome/141.0.0.0 Safari/537.36 Edg/141.0.0.0" version="28.2.8">
  <diagram name="第 1 页" id="STJRUAUiduomuyzC31ho">
    <mxGraphModel dx="725" dy="398" grid="1" gridSize="10" guides="1" tooltips="1" connect="1" arrows="1" fold="1" page="1" pageScale="1" pageWidth="827" pageHeight="1169" math="0" shadow="0">
      <root>
        <mxCell id="0" />
        <mxCell id="1" parent="0" />
        <mxCell id="0bz0VLMRa1vPZbrDY2g7-19" value="" style="shape=flexArrow;endArrow=block;html=1;rounded=0;endSize=3.3522891566265063;startSize=4;startFill=0;endWidth=9.438072289156628;width=4.16;movable=1;resizable=1;rotatable=1;deletable=1;editable=1;locked=0;connectable=1;fillColor=default;" edge="1" parent="1">
          <mxGeometry width="50" height="50" relative="1" as="geometry">
            <mxPoint x="280.97" y="272.71" as="sourcePoint" />
            <mxPoint x="300.97" y="272.71" as="targetPoint" />
          </mxGeometry>
        </mxCell>
        <mxCell id="0bz0VLMRa1vPZbrDY2g7-20" value="" style="shape=flexArrow;endArrow=block;html=1;rounded=0;endSize=3.3522891566265063;startSize=4;startFill=0;endWidth=9.438072289156628;width=4.16;movable=1;resizable=1;rotatable=1;deletable=1;editable=1;locked=0;connectable=1;fillColor=default;" edge="1" parent="1">
          <mxGeometry width="50" height="50" relative="1" as="geometry">
            <mxPoint x="214" y="272.71" as="sourcePoint" />
            <mxPoint x="234" y="272.71" as="targetPoint" />
          </mxGeometry>
        </mxCell>
        <mxCell id="0bz0VLMRa1vPZbrDY2g7-22" value="" style="shape=image;verticalLabelPosition=bottom;labelBackgroundColor=default;verticalAlign=top;aspect=fixed;imageAspect=0;image=data:image/jpeg,/9j/4AAQSkZJRgABAQAAAQABAAD/2wBDAAIBAQEBAQIBAQECAgICAgQDAgICAgUEBAMEBgUGBgYFBgYGBwkIBgcJBwYGCAsICQoKCgoKBggLDAsKDAkKCgr/2wBDAQICAgICAgUDAwUKBwYHCgoKCgoKCgoKCgoKCgoKCgoKCgoKCgoKCgoKCgoKCgoKCgoKCgoKCgoKCgoKCgoKCgr/wAARCACNADsDASIAAhEBAxEB/8QAHwAAAQUBAQEBAQEAAAAAAAAAAAECAwQFBgcICQoL/8QAtRAAAgEDAwIEAwUFBAQAAAF9AQIDAAQRBRIhMUEGE1FhByJxFDKBkaEII0KxwRVS0fAkM2JyggkKFhcYGRolJicoKSo0NTY3ODk6Q0RFRkdISUpTVFVWV1hZWmNkZWZnaGlqc3R1dnd4eXqDhIWGh4iJipKTlJWWl5iZmqKjpKWmp6ipqrKztLW2t7i5usLDxMXGx8jJytLT1NXW19jZ2uHi4+Tl5ufo6erx8vP09fb3+Pn6/8QAHwEAAwEBAQEBAQEBAQAAAAAAAAECAwQFBgcICQoL/8QAtREAAgECBAQDBAcFBAQAAQJ3AAECAxEEBSExBhJBUQdhcRMiMoEIFEKRobHBCSMzUvAVYnLRChYkNOEl8RcYGRomJygpKjU2Nzg5OkNERUZHSElKU1RVVldYWVpjZGVmZ2hpanN0dXZ3eHl6goOEhYaHiImKkpOUlZaXmJmaoqOkpaanqKmqsrO0tba3uLm6wsPExcbHyMnK0tPU1dbX2Nna4uPk5ebn6Onq8vP09fb3+Pn6/9oADAMBAAIRAxEAPwD8CrRVZgOxYBs+ma7vQ4VuNMv7ZRjz9GnUb2/jCgr69AO3P5VwVqVDhmXI7j29veu78NXdmxS2V9rNHuVJByVZGBA9TjH61yYi7aZtTs73OAO5vmc84zSL1H1qW5tJ7ad7Rxl4pGVseoNdOvgp7bQE1/7GxtnQfvWc4OeeD0rpckjE5UEt1XIra0wP9hvdocbbQRAqOCxzkenIArLuPIWVhAFdS3Gc/lxWnNeRRaTcQeaP3rqEI45AAzjv35pvYaVytb6lf2xZ4b2UZQq6LMwUjHQ+o9qziMHAYf8AfNWQ29WG7OV5b1qIqxOQpx9Ki7LHxoYpFLAZz8uRnmuhtrzy2hV7rynaMbAUyCQR26gZ5xWDBGGvkBzhSpPPWuu02O0v2VphGkqKzRkjOVBxj27H8KzrtJajitTHMukHxol7r9pNPp0k+6eG2mEcjLgDhj905Hf0r6F/Zr8G+BPGHgvxV4X1bQHm0+6cvYtcaizSW4Cg5G08kc8ivmmSd4755kUbllYqAOOtfR37DUet6j4w/tHWNAuLmw27GkhtvkZiPu4HfBHNcePdVYf3OnYUpQg7s8J+JWn+E7DxPNo/geSS4srJzCLuW38tpWBIOR7Ede9c8UnMaI6ttjztB7ZPNfXn7Rn/AATT+JSeFNW+PHwa02e80mOZ7rUfDMin7baITlpIx/y0Xknb1HOM8Cvkh5SIh8gYOOGBrtpOTpRevz3M6dWlWV4NP0GMzqD8pwQah2p/k1K/EbF0zg+tQbJG+ZEYg9CFNWU2aVtALVjJdS4Yk42ODjvU0VzMsnmLMy4BwwBOD6Gq7xMIvlz7knOafHLcB8SsDu4OAOlRJJs0i7D583V2JCGLMBuJx1r1/wCE3gjxvc2sZ8JalqNldxQmWL7Bdum8DnoGA+leTR2uZA+0NnoM85r7I/ZN1jw3ofhmG88QeG5JIGtnimRsbuh+ZS3HHpn6V00KHtFZnkZniXShZK9zvv8Agl7+0z49vvi3rfww+J2rNfD7OxZboFmZfulTnOTj+dfPP/BTz9nPRP2ff2h7m98I2xh0PxQsmo2EJU4hkLAyID25Ocfl7dJ+w14p0zRP2+YrO0vPMsNUvru2t5HXa2SdyBh2wQw/Kvaf+C3Xw1+w+EvDfje5u2MtpfGB4nTKlGG3r26/pXXVpKWGuuh5eFqOhmKS0Ulsfm5JIu0oO/HSprW21AwKYS+05xj60ktuGlCW0W84+8DWnYw3sVokf2aU4HoPWvNuj6eKuVxZzxlZHAJI4G/GRQ9rMuWQbiB1JGOtWLiYJMVdcqf096ie5faVMSfOQCQvJFK7bsO+hKNzxFA+3KnDDqDjg+1foz+yF4f8I/G39kOS4n0yO4mFi1tqhVP3lvdR/L5i45HPI9RX55+GhD/wkGm/a4RJAb2JZoicbkZgpH65/Cv0O/YN8OS/Ab45X3w1ux53hjxjYpPCpYnyLgLjjHYggfUV6eAhKUmfPZ3OEad29U7nxR4I1vVfgB+0lpniDxCziTwz4gzcyuuDJCCQWGPVG3cdxX3l/wAFWv2g/gr+0P8AsR2Or/DXU7jU7iSW2nE6WTrGhDqXBZwOQAemfSsX/gor/wAE1vBnhX4MeIv2m/B/iLWb/XNOuFlu9OlCi3S3D5b5QMkhc4Y+3tXziPGU1z+xprWgXV4Zdg/cKx/hxwP84rgx+IxOEapRtaT1NMBDDZjKGITd4nzxDpbQAOLh0GMjJp4hTHM759naoJLzWrhAARGGAyBk9evFV3ttaLE/aFPvisFrufQ8qWxLevFbyhmQneucYqlNcl5VUHnI6d60p5F28RFlx0HWq+s2dtEjTvdpvaIFEwQ2fSml7xknZFzTZBDc2jEgBbyFjz6SKa/Uz4N6Jc63e6PqmnX9uTBaxNBvALxMQDgivyY07UWsbqK4fMsaSKzRM2NwBBxnnGeRntX2X8Bf+Cm3w68AW6WPij4YeI0htIVW0ax8QQ3jAqMcidIm/AMa9XA14UZPmPAznB18XD92rn3r+354+uPB37E3jHVLyfLz6L5EihuJGYbf1zX5a+H7W71n9nrVNK8PFbm7gYefZJkybAAMqoBLH0GK+g/+CgP/AAUb+Bnx+/Z2Hwm+FOoa5Lc3EyveS3mjm2TjGFJZjkdentXw34K+JXjD4feIrXxP4Z124s7y2fieDG4juMMCD+IrjzJLE17xextkeGlg8O1NWZZnuZLfUZdOv7ae3mT70VxEUYexU4I/Knhhjjn33VS+IXjvXPih40uvGmt5a+vSGnZPmLEDGTgDn8O1atpouLZBNq1oX2/MfMYc/TFckqbSVj2+czLpTGAVyCwyT3rOuofNMksrsSBlSTWrdMCCdoxj5hWXMyNuQv1GK1WjuZmbghecfSpIiNwGTkAnimsD5vQDPpU9mUEwLgYDZOa1CxcvLHUXtI4bW1d1b52K/oKzEBVir9fQ9q7WAmWBXto+CvChsDFYs/hHUZp5bx2ijyxZYic5/HtWafQDKR3tJkureQo6nKkdq0P+EiWT558bz975e9VINK1K8n2QWrck4JUgfnWtH8PtaZA32mIZHoaG0mG4t8HVvlJOeuO9VJrZiQxUkkZ6V10/hOcs0saDJ5Az0qOTwtfwxNNJaAgDOc8GknoZxloefliJiCOjGlmIEahcj2z1p3lbpnkAGNx6fWt7RvAlz4k0RdSsWAYylF3DjAPJrS9kaDPCetRFvsN2+3J++a6uG0R05AIwM8cGuct/hn4kt723Q+UGeZV5BKjJxknPSvpLx5+zD4T8CeArLxp4f+Js1881qjXOkaraojxMcZ8uSMAYHoQSa5KtalTlaT3JdzxRLdo1CQRjA4ChR09K0EhbYNoAGOlah0RVO1IjhiOPSk/suQcNGmfcGmnzLRGUq0YbszLbx54JkODr0CEYzvyKb40uL288NPD4WhN5Jd/u90DAlUPU9c9OK4az8GaDrDRw2PxE01ZHHC3qNAo47s3ArtPhV+zD8S/HniKDSdB8RaZYQXCyGLVP7RIgkkUYEakY3OScDtwcnpl1J0cPHnm7JFqOuh5k1tdWztA9uyS7toidcHPTH5mvb/C/hf8Asrw7aaUSC8NsokIHVup4r2Pxn/wT68CfDr4F6x45Txpf+I/EttZrNZvKywww3QIBQx5O8E9CSenFeP6f4S/aCZ/KuL3SYUGBuWIyEfXOO1YwxNHFRvTlomFT3VZ6Fm+06G2t/tRTLRMGTcvC/wCeK7XWvFZ8eeELUtIIvsxUSxxOWDFQBzmuXTwb8Tpg0Wo6jo1yGXmNoHgP6bq0fBPgfV9E846skccc7b1SKcsO3UEDGK5qqUpJszVWCWrKN1pk9tA8wgLup2xwofvsThUHuSQPxr9Cfgt/wTf+FGm/CvQ4PiNeWr629kJtRMkfIkkJkx+AYD8K+Svgh4ETxn+0H4C8Fi2jmXUvFEG9Js7WWBHuNvHY+UPzr7r8c/BT4WfFvxhqXjnTP2zNesEmu3tZdP07UgkNpNbH7NLCq4ONkkLofdTXq4KcYU3J+h8lm/tMZiFBXstdD82rv4IfDPUNx/4QmwiZkI3RQhApxjge1dT8P7j4h+B/CVn4JsfGCT6Vp6CO0t7iwjwiDsSOvc5xnPNXFjjSTiNcj7px0zVsRAxcMQSBnnjnjpXBU96NpanvQxlWnsxl7daprbJLrGtXNy8SiOIPMQqr2GB/OkezUjBhGP4WB6fU+lWYrRJUYNgbsglVxVqxsY5gS7E7egbmopqCVkrGdbGTmveMttPlZ/MCjGOD3P5dKI9L3PtcHk9sfnWzPaxRHgfxLnHHWqGu6qNEhaVbYSfLnBOO/wBKymkc6qts6z9mi2ttG/a6+E19LOFi/wCEynjd3b5VDaZeYz6c4H419b+GPh/ceJNCt9Sv7zwlfXCqbe5nuPDj28olhYwvHKjHJlRkKO/R3RnAAYCvgC1+Kl5YajpHijTNLWK40jxFp91FmckOwnUEHgYBUlT7E1+4fhWKO98N2N60MatPapJJiFeXYZY9O5JP416+Dpe1o8r6M8XMKkoYlXXT9T//2Q==;imageBorder=none;strokeWidth=2;shadow=1;strokeColor=default;align=center;fontFamily=Helvetica;fontSize=12;fontColor=default;resizable=1;fillColor=default;movable=1;rotatable=1;deletable=1;editable=1;locked=0;connectable=1;" vertex="1" parent="1">
          <mxGeometry x="110" y="203" width="50" height="140" as="geometry" />
        </mxCell>
        <mxCell id="0bz0VLMRa1vPZbrDY2g7-23" value="" style="shape=image;verticalLabelPosition=bottom;labelBackgroundColor=default;verticalAlign=top;aspect=fixed;imageAspect=0;image=data:image/jpeg,/9j/4AAQSkZJRgABAQAAAQABAAD/2wBDAAIBAQEBAQIBAQECAgICAgQDAgICAgUEBAMEBgUGBgYFBgYGBwkIBgcJBwYGCAsICQoKCgoKBggLDAsKDAkKCgr/2wBDAQICAgICAgUDAwUKBwYHCgoKCgoKCgoKCgoKCgoKCgoKCgoKCgoKCgoKCgoKCgoKCgoKCgoKCgoKCgoKCgoKCgr/wAARCACNADsDASIAAhEBAxEB/8QAHwAAAQUBAQEBAQEAAAAAAAAAAAECAwQFBgcICQoL/8QAtRAAAgEDAwIEAwUFBAQAAAF9AQIDAAQRBRIhMUEGE1FhByJxFDKBkaEII0KxwRVS0fAkM2JyggkKFhcYGRolJicoKSo0NTY3ODk6Q0RFRkdISUpTVFVWV1hZWmNkZWZnaGlqc3R1dnd4eXqDhIWGh4iJipKTlJWWl5iZmqKjpKWmp6ipqrKztLW2t7i5usLDxMXGx8jJytLT1NXW19jZ2uHi4+Tl5ufo6erx8vP09fb3+Pn6/8QAHwEAAwEBAQEBAQEBAQAAAAAAAAECAwQFBgcICQoL/8QAtREAAgECBAQDBAcFBAQAAQJ3AAECAxEEBSExBhJBUQdhcRMiMoEIFEKRobHBCSMzUvAVYnLRChYkNOEl8RcYGRomJygpKjU2Nzg5OkNERUZHSElKU1RVVldYWVpjZGVmZ2hpanN0dXZ3eHl6goOEhYaHiImKkpOUlZaXmJmaoqOkpaanqKmqsrO0tba3uLm6wsPExcbHyMnK0tPU1dbX2Nna4uPk5ebn6Onq8vP09fb3+Pn6/9oADAMBAAIRAxEAPwD4LSQOcqO/OKrXnmG8UxyfgD6UkM5TGSPzpy6vHZWl8EsxLc3UawwSMARHGTl8D+8cAA9hn1r+uMyqU8NQdbkc7dF+fyP9D1V9rFRcrf8AAMu3tri/v22QvK/JLA9q39D8KeLbuQyaBos9xkElooC+AOvQcV3nw4+HNrrc2l/D5LSD+2/EF6kctxyTbox5jHTaQgOfc+1fpA37EfhLw38GLbwj8HIbPSPEltb/AGrTbu4i81LlwCcSZ65Nfyn4nfSe4W4Oqwy1YP2s6k+SN3yx7OV9WlfS/wBxpXw+D4bdGrjKrVSo7q1tPW/4n5L+ItHvLbVmi1HRHsptgMyNGylj/eIPTNYd0Iw+1a+ov2n9RvfGHwJs/GHxJ8KQ6Z4z0fX5NKv4olERkAJy2zqVOMj0r5dvopI5mVwRzkZ71+6eGPGlDjjheOMp0fZOD5JQvzJNdpfaT6M8vPsMsNW5lrz69P00IVIQb29OlVGu50YolkhA6HFXYoPO3Ljp1pJtDuo5WQsvB9a/QnGSWh81UpYicU6aNQTEqMVJFcwQ/vJ87QeoPI96qmQK20Dp2qn4ku2t7FDGDy/UVVS0oNPqexPFPDU3V/lPWPgR8S9X8MfFLw9qP9uJcQDUlV/tOC6FxtB3Hkdutfp3aX3i/QfC/h9vBd1dQxXZH2uSRmnbk5YKew54xX5AfBrwLc/EjxH9gk1drC3iZd08aFpCx6KoHf8AlX6ZfsvfEXwh8NvAlj8OPFHxmvJ7y1kWRp9fYloVH/LMMoNf5e/TF4ayTC57hsTl0ousk+ekot6N6S7K3Y9HG18XneR08bVpXjF2V9eZW+/c8D/4Kj67Zan8ZLHwfb6dFCltbtLfXSpiS4mKjDMO5A4zXyR4mintbqCOcDEkRZCvdc4zX6Rftt+F/wBnH9qALcfDLXXm8YW9runu7SEiByOAGJHU+1fnj8TfC+u+FvE39h+I4gt1aRFJIwPuDPAr94+iZxbgsbwZhslw/uVad3VhPSbvtJJ6tfI768aGL4Xp1lGUZxSi091r+XY5/Tm8suzJkBhkDuO+Kh1RLi81Ca602H7PA7kwwmQtsXsM96s2UeQ64/DFWfIk/wCeR/75r+w6mF9rK8pP0Pm4UnUw6i/UynvHDAuD+NLI8V9atDOvHaoJb6CRgxT9KDqEBHyqRjrW10jy/bRd05JpnsP7HMmmeFtbudV1WDzETbsOMkNk8j3xX03pHxg+G99aP5li1sizuNr2yyu3Hr2ya+NPCtxc6dpyywzFRNDhtvUg9D9RWzp/inVLERRxzHy8bSu49exPrX8I+M3hJmvF3FeJzajPZLlV9LJan7dkWFwiybD0pNq0Vp6n1l4c8WQ6HHceItOhYW4tTII1ABAB4GBXz9+0xren/EWNfHmneH4bGS2nMNxslBMqv047kHP/AH1XdfCPV59Xt5rK9b7UtzpDKhhfI354B+npXhesX9yZdS0W4kJT7VIoDfwlXOP5V8L4EcL47LuPZ4ujNqrh3FSs9HCWjT7ndmWCwv1WrGa1kmk/yOVs5ks5A7rnBGQa0/7X0tvmbgnqM1m3MEkztxjnBFQm3ZTt3jj1r/SLFYedZqVOfKj8mw2Mr4JOCgmvMyobF3Uqg+6eTjpVeW3uoIm3RE5zggV12sx2cPijUYPueVeyqUYgEYY5pljpt3r1/b6NpMAM17dR28MarkkscCuF5jhnk319u0eTn9Fa+p5M8kXt/ZKeqbWnqddp3hjT9I8BaG9zFK19dad51yJXxsBY7QF7cc++azHiRJfLfO31/rXpnxs/sG08YSeE11NYzpVhb2rFk2sWCAfMPSvN9RWGCYCK6WUNnBU9D3FfzHwhnuK4mhKrKcm5uTSs7ct3b8D9zoUqOEwNOC2ikrnofwm8UQeH44Li3ujuSMKVibgEnnIqHQvgB8R/ixr+s+L/AAzY2NtoyX0xN7dXAGSMkqqjJJP5VxnhvVxYTGIzKFc8gjpivpr9h7xPpk3hTWNI1iWJp7fWmZQ3VI2XjtznH4V+a8S5rnPhPiMbxBllNTnNwi1JaWb1dvIzzacKuCi30a2/4B8i6jpc1jqE9rMQTDIyOV6Eg4qMWBcbhA/P+wa9X8daZ4Zu/ivrR3SuBq0gdoYBgY6jB6g54I4rNn0vWY5mSHQLbYD8u+YZx2zX77S8eMrp5VhKk6P7ydOMpX0Sb3Setzw48IQqyc+e0W9NDK8QfDHxDc+J9TuE8LBxJfSy7kIHyliQQc8DHeu1/Ys0H4dap8V5vEfiDVoBJoFqZNPtpW2pJcHIBLnjgZwP8K4r42/tDXOkeINY8AaZo9t/Z6yC2mvIiwmljU5YA5wMkY6cD61zPhv9pLSNO0HTPBtos9ranVJp9ciECETRtgKFYc5Az+NfCVpeJXEfh08HGk6EsRCMI8vvXg1Zyb+zp0OTGZtwlTx7oSrQjJN3bVmnfp06nX/HrxbbeKfjV4l1WIwkS3iohifcpCjHXvzmuTklMjgEgY4HFaXw28XeG/FtxJbX/hdZ4Yo5MtFHs2jnaxcd/rVCS0EL+WpZQCcKcHHPrX6vwDieG8kw1HIXSlCtQpwTcktbr8zWrDGYzCrEYeop0m9LdkKrRq6ZXjvgV6r+zprepaSy2ekPGrajfyGWQuAVAXC+4615jonh3WfFet2/hrQDC93dMRCsr7V4BJJPbgVzHjW/1rS/EMjeHdYNlLp6+Q91YTtiRlPzHPfkGvL8SeB8t42y+eR4GtH6xK02n0iu/ZMznxBPKsO6+JpuUFokur8vSx6F8WvHPxW8Aa9LZ+LPhdFp5mvmRL9ixW4jB6xnoSRj/CtLS/iH4Yu7CO5GswR71zsnchxz0PvXzx48+MvjfxSY9O1vVby/e2/1cs7ltv0z0rIh1nX2iVn3gkc8V5EPBPA5hkWHpVoqhiKekuVuUWlpdX2ufCx8Xo4LMasIqVenpa6UeV9VtrY6nUFk8UaxPd37szyyO8jnqWJyTUM3hCxsgWguCzH1rv8A4teCvDPgb4lar4Z8OSStb2U20CZgSpIzjI649a5S7G58Bu1fuPDmKwGP4fwuIwTvSlCPLpbSyPCzLKYU8VVeKipVOZ6+rL3wxl1nw7dXFrpupSJBPCRcx5+Vx9PUV00sjyDe/JB6nvWL4RiEUMjZ5LgZx1Fa8j7fvHhQTj1r5zGZBg8Tn/1qMbN25mvLufpPDVaWX8PRo9NbLtdnVfDLQPHWq6Vr+ofD/Q0utUa1SztJmcKYA7fvHUngHaMZ964T4kfDTxR8L7+Lw74vso7e4mtxKkUc4f5Dnkke4rsfB/ifUfAWqafr2l3MikHN/bib91cRscFXGcHj8RXtfxR/Zs1X9oPX7LxoPF1lpelJZQ21taRWjSzFsZZgw4IJPHPGK/FJeIX+qHifVnmEqUMDiIv960+b3NOS7631sjtzvJpYzKopX51sr6Xerv8AkfFkml2byMVtxuI64pV02PA+QflXea/8HvFGkeMdR8J6VpF7qrWGoPa+fY2jyK0gP3flBw3Tiurs/wBjr40Xlql0/h2C3LjJhurkLInsw7Gv36vxlwlhsJSxNfG04QqJON5JXT12ufllPhjHzrShGjqt+n49TgfFGsPq3iO/1iecNJd3ckjndnqxI/nWQgeSXdjivWNb/Yk/aJ0q/kt4PAkt7FG5CXFlKrq4z1HOayp/2bPjTp8i203wu1je3KqLYnP+FY8NcQ8JVsnw1HL8ZSlThCKVprol0v3/ABPTxeAzTEYqdSpTaTbffr5GB4aYNbKpOCSc1saXpWp69qEek6RZSXNzKrFIY1ySACSfoAKz9IgW2g2uNrjPmDuCOCPrX0Z+w94EgQ3/AMVb+2PnRqbbTt6ZUoeJGB7HtXheI3HuVeHXDdfOK3vOKtGP88nZJH2GX0KksJCM9lufPcQCkbtwGCu0n7tfRH7JnjFrzRx4Zg1hjeWlyyTW8jfL5I5jxk/e4PPtXB/tOfCi48BfFEW3h3Tp7jTtdHn6UIoSSXJO+IADkgn9a5j4a6t4h+F3xg08X2kTwYuVh1O3uI2VUQn7zem0857Yr8a8ReG+HfFLwujnOAqwjU9n7WEbq97Xkrb7nuU8dOnU9hOLlFvez0vsfcPhqSOzWSKytobL7Rdefdm1hCGWQ9XbHVjiuXbwZ4s8QyyazNaSWJuJXYWso+ZBuIGee4AP412OkyaZeQRzWV1FLHJGrrJGdwYeoPpXNeKP2gfgP4O1658NeJ/iRp9pf2jhbm2mmG6NiAcHnrgiv858FWzTH15xhTnWkumrsttuhlGv7OcrHURPIr+YHkX6ORXnv7U8Hxh1P4RXGjfCG1vJbq/uCurXVrPieCzA+YIOpLHjjnGcV6SqydlJ3DgY61wPxV/aR+Hvwp1aLwPe+M7Sx8QXkRSO5KmSHTy3G+bb932z3+ld3A2IzLDcTYevhcPLEeykpOnrZpau9uiOOCc5W6PzsfEa6bJpiNpro0csQKGOQEMG5GDnvX3R8HfAkvg34WaB4cntPKlj05JbpQMb5HG4k571wfwb+EHhrXvFk8njDS7TX0gIutGu9wKTSE7i4I/1uTzjmvc0lu5GLzBSx4xt+7jsPYV+9/SJ8Z8Dx9gsJlWBoOl7J8077XtZRXodVegsu/cRd72KyWuVRZIo3MQIhMsIYp67SRkH6Vx/xDsvCnh/xzp9zqE+nxNrFsReW14yqrvjAYbgMjpnB7V6FZRyzFYRbZJJYIz7cn0z2z0z718xftFfBP8AaQ+NnxEj1Oy+HGuFkcw2lrdyxJp+mReqy7suf4ifyzX474aZPmXFGdPBvGvD0IRk5ycvdivS60M8FXlCtKTlaKWuv5In+Nf7SkXwo8NyWPwk16z+2QsGntlhLrbuWIQNzx0JC96+QNU367qVxrXiG4e6vruZprq4kk+aR2OST+de6fthfBzQ/wBnrwZ4P+E1pqi6nquqTTat4i1Ty/8Aj4dRtRVY87VJYY79a5HwL8B9U8W+FbXxDDod1KlyZCskZGGAkZeOfav7n8Hcr4F8P+Cf7aUFiHiKjp+1kvjUbu6X8t1oz53M4186zD2GH92MIp+rf9fmfeUmpXFzZXFrZat/Z9zNHi3vzAJfIP8Ae2H71eLfEj9kbV/iRe3l7rXxE8ILPfXAkn1CLQ5UuPlHbnByOor1hmIbcOpPNNivJXBJ/Q1/CPA/G2Z8AY+eMy+lCVSSteSbt6f8E+nVBRi0tpb3OL+EH7LXgz4V6/4f8Vav8UfEev3XhmV5tI09XW3sLWVgQxVPvMvPQ8V6wniFDNkwRrlmYHHXP8qwldt21ufemNdMhyUB2jAzXicT8Q5txfmP1zMpJz1+GKikm79LHLHAxU2227nQHWQV3R7VGcHI60yTxDdMnlB3YD7g81sAfTPSsT7RIQvv1o+2lISojHLYyT/n1r52FKVNPlbV+zsP6rDqfMn/AAUjklvPHfhG+Mfyt4fmRX7ZDnI+vIr1L9lbxK9t+z94Zt/7Jsn2WbjfKRuP75+tcP8At+2cF54L8M+IZExPaapLbIR3R49x/UV8++HPiXqnhrSI9EtIC0cDyBT5xHV2bp+Nf3xk2WVeLPATJVh5cnsqs4vzsmebSUcLm1Rd4p/of//Z;strokeWidth=2;imageBorder=none;dashed=1;movable=1;resizable=1;rotatable=1;deletable=1;editable=1;locked=0;connectable=1;" vertex="1" parent="1">
          <mxGeometry x="165" y="203" width="50" height="140" as="geometry" />
        </mxCell>
        <mxCell id="0bz0VLMRa1vPZbrDY2g7-25" value="&lt;b style=&quot;&quot;&gt;&lt;font style=&quot;font-size: 14px;&quot;&gt;CLIP&lt;br&gt;&lt;/font&gt;&lt;/b&gt;&lt;div style=&quot;&quot;&gt;&lt;b style=&quot;background-color: transparent; color: light-dark(rgb(0, 0, 0), rgb(255, 255, 255));&quot;&gt;&lt;font style=&quot;font-size: 14px;&quot;&gt;Vision&lt;/font&gt;&lt;/b&gt;&lt;b&gt;&lt;font style=&quot;font-size: 14px;&quot;&gt;&amp;nbsp;Encoder&lt;/font&gt;&lt;/b&gt;&lt;/div&gt;" style="shape=trapezoid;perimeter=trapezoidPerimeter;whiteSpace=wrap;html=1;fixedSize=1;rotation=90;strokeColor=#82b366;strokeWidth=1;align=center;verticalAlign=middle;fontFamily=Times New Roman;fontSize=12;fillColor=#d5e8d4;movable=1;resizable=1;rotatable=1;deletable=1;editable=1;locked=0;connectable=1;" vertex="1" parent="1">
          <mxGeometry x="270" y="243" width="120" height="60" as="geometry" />
        </mxCell>
        <mxCell id="0bz0VLMRa1vPZbrDY2g7-28" value="" style="rounded=1;whiteSpace=wrap;html=1;strokeColor=#7D7D7D;container=0;movable=1;resizable=1;rotatable=1;deletable=1;editable=1;locked=0;connectable=1;fillColor=none;" vertex="1" parent="1">
          <mxGeometry x="233" y="203" width="22" height="140" as="geometry" />
        </mxCell>
        <mxCell id="0bz0VLMRa1vPZbrDY2g7-29" value="" style="shape=image;verticalLabelPosition=bottom;labelBackgroundColor=default;verticalAlign=top;aspect=fixed;imageAspect=0;image=data:image/png,iVBORw0KGgoAAAANSUhEUgAAAB4AAAAeCAYAAAA7MK6iAAAFGklEQVRIiZ1Xa2/bRhCce/BIybLsxECA9kP+/28r4tqOZUkk71HM7h1JO4jRlgbBh477mtnZs/FwBQCKMcglwzoDay1ymvkaQwBubw84vZ3Q9x2c7XA8HvHz7YS/H0+A8SilLKfYKgXGGDnbu4+H3T4bmPXeMAAaAa7XK5wzGMcZOWd473Fzc4OU8IvT7fE7pzx8XpyqM2A15L1FCBpb3wW4weHtfMU8z1wFLmcgHw+18/nhWznaYhqksRYI751z8ltKCTFmDMOAWLJUg+vxL51tDwsw4oxi9GzPaswK3jTK8k7ThM5bXC8XlJgWnD46bfh+6ljKihWj9lH77nqNiDGq066TAPjMNff3N++c/ceM12PrvBjAZOIM7EMPpAxHAFJGcB7OWsT58ml2n5FLHG/ZvI1esDZGyKQst5Lx6+vrwu7/k604ziyzKQu2NBhjEuLwvjB12CV6OmepSbSWLe+3AXDtlpStQ9iexhR0nYPlWp7qSK/eO1nYnDeDdKpG/Lvr77Le9jeDy3ld6z8u3n7vnJXo9GMjrWQ7X9sqLoH87igl10ztO1j4bFUE9EsuUkzTgiGZrL+pQz4Tc56t1bAh0loBtcn1fd/LtQVK25b9/75ISvSSgFigQVinmW7FgvjasGRCfhjTsm9BbKAynAOA83rv+aNgLDhkEQ0aM8jSu5wVh8Ne71OS6263g3VOSEgVU3L9Kp1LKiytq9dKTr+Wxdboah8z2pqAqZkzsOs4auk4wXJBCB7ncxG4GlFXG0UcdsEJw3ku71tJlEyrJvNHkouvmmQWCWDGy8tJo/Z+0zJYFG8hkLW4XFQDDocDvnz5gru7u4q3sTAN10p/7d9SP3aY2JP9ABsCjHE4Hm9xPp8R4xXeXnE8WHHonVbK2oCUDJzrMfQBp9Mrnp5+oJSIu+MOx9uBGLd6mnfyx2ZnNmqs4HK5aFtYq2OxftfIo7ObwepE4zmOo2JvgGmacTiccH93i2/fvulYXIgo4a4cF9IUCIHG8SrGUkkLLNwY7PcHmOKR009M8pMTHX94uMd+vwfMhJeXv1HKiIeHHf78407K7Vt7LCpT1jnM5znTsfajvEurFF4uI0IY6jxnzA4pq52vX7/i+/fvOF+emQKen/+qchxVI7bKI6Vuf7XZrVdCAaWSLCAEYqgCwjEmjKbUOg4vDfjp8QcMJqQ8YZ7Oogtvr8/48RiQy4WQvZuMq/qU5shJycnwhp0qUNYAYi291SpI2Mbg6ekJzy+P6AeHrjMyXrdd4z/qbS5RWyNrw48jNwCUzlA3BGyPCTnrhNKgHG4OQcTFcmdiVKH6fsAwBBTMohPDsMN+uEHw/TokGskYMYVBMKvizmtzEiNXRenv1qt0yPFJkfFe+RIjsb4ixgm+I086CZyz3NoNxstMtdpKTeoYkAyKnITxkwFC6KRNmOk0RZACijmW0dd1VqDgtti6jJQK3t4uqpI2wTfMttg2+UOdSsLaen842Pq+WxTNuXnDD9SBb2oAnWRMTrAy00TpPKzttLZUy9YsGYt82rbjLKJaxFx6r3QoeXVskITpkW0VE6bTGTARXe/QBYOdjUg2qoBsT/ZF09vWz8TGhW5RpsZOEZSUlk39dj63DqgahGISXN0USMVaRrKQ/zttnDZRmecJnWO5aNjKmOT/VsRtqmuaUzJFvq3bKOqATCVbcB0zzlNGccP77e227NuhQaMtyzaV2rs2ibbrt+3ZptY8a/YUo2ma8A9ooXJpyII0GgAAAABJRU5ErkJggg==;imageBorder=#67AB9F;" vertex="1" parent="1">
          <mxGeometry x="235" y="211.25" width="18" height="18" as="geometry" />
        </mxCell>
        <mxCell id="0bz0VLMRa1vPZbrDY2g7-30" value="" style="shape=image;verticalLabelPosition=bottom;labelBackgroundColor=default;verticalAlign=top;aspect=fixed;imageAspect=0;image=data:image/png,iVBORw0KGgoAAAANSUhEUgAAAB4AAAAeCAYAAAA7MK6iAAAEnUlEQVRIiYVX/XMbNRB9+rhzEtsJToZACZR2gDLDX9n/EQZ+YdowUGimpAl2nfjjJDFvdXvWOXZyHs19SNrVe/t2JRtjTAIAYwx2XSlJd3ev61ru3ns0zQonJyfy/uHDNQ7qAQaDAWKM0vg8Go1k7s3NDeZ3cxlr+HvKsV6c7JxDVVUIIUizFp3h2WwGCyfPdGqtlWc2Lpbvy+Wys2cf9VZcnNg0jXzgAhQRF0yDISRYh67BRCREGJu6xndtPce6wrKVF53wm965GG3OmW5hyp5zdidamvVPIS2dEykpVsPax3jLYiPfcr+yslqt5F0YaWFy+pOOtxdAY6VzPmcxAXXluvHs10bElFIp1EcdbwuOyOhovV533/S5rj1SjA8Wp6HQcUrgXnHtUjmNad/h4SGOjo7EKB2R2pIZvquy2b+x2zquKifCIBVKDbZiqyiyiByYgN46WI5NCaFp0KzXnbMc07zITVqh59yXzqx1PVSq3lLJTCHEJOMWi0U3to9qw1YJoATlKXetNJzLe5kqJXUpRMQmSNow3qreTCcNkhXTW7Q607V0mUBH7GRFaprYOWZTxWp8K5fFFWIoDJrO2K7it68WeFaYQBVGwJq6QBB78peSWbtcNkMl/ctl04kq6+ShPpS1BxnCmDHJSR+R6KCyqTEVjaYJiyDnKWsl+j7NG610jrliRble9akuB6uAmI8bMeb8ZFUi8G1aH7s8Y0t1EnVoNuqUtGmdqYiIjs8UljiMdBo7hJzKsriLrVLVYuN4fIDFp1sEk7CWARbGeoSYJEeNrRBTQApCLJByaeTkxSzKeG+rLBjf7IynAtgQkuDPz8/RLFe4vHwP5y3Gowms9bi7uxMW0JY5iVObqroL7bt2Od++/KsfLvDZicfRCHj3x3vU9hbWH8AdBEy5z0agsjWiUGpEULFpi4rEmfvrEsYa6d+XRthKN8ljFpHJZILaOsw/LTCbL3uoBC1atcO08UxdPPm8L4f3IffXH/8GUsDhIXA6+Qa3NzPcv/0T83kDxy0kGRER5xu0Quqbx2Ni3qd0y7zUs9R0OsXV1ZXci9LbldBWb3sp3M7VlMrD4hbi2g9kZ5rPp7j8a4k3v/+bV+Qd1sYjmJBzlLtOa4Dh7E4T8HA8WyWDaGIvjXTHe8ACHd/f32M0PpIBGteqplUHZ32uUDF/9961p0vNTzq2HdoyT1HscLoIRS2O/5tNYXxENfBSbwkr77NG7g1LJCmkmm3slcVsJFB2YswUdKvDXv6a4gTC+A6HQ4zHY1E2JE9Dx4CyUG4am9j2q1M/vmXNzzoop/tgG6DKB/OX8IjLZ/jl538Q40I4GbbbJU8dJnlJp2hy6ZRgC9YIGZDMzkXRa877jdC8oiHys7MzmO+txO23X9+BYGXX4r8BX6OJoaW3NRCfrlA9URVZ4b7+7svXw+MhjPO4DxErY/D5V89w8eJbLNMa19dTJBGZk3SCYdXIQqHj3DLwh/Ev/yQwEzLt4viLi+PXvsr77MfbKbyvcTo5xY+vfsLz5y9wMprg7ZtLhMCCkjeH9u9WZ7A7ORZHJWGii7/W+5Z5A/wPJg1hel/rHU8AAAAASUVORK5CYII=;imageBorder=#67AB9F;" vertex="1" parent="1">
          <mxGeometry x="235" y="240" width="18" height="18" as="geometry" />
        </mxCell>
        <mxCell id="0bz0VLMRa1vPZbrDY2g7-31" value="" style="shape=image;verticalLabelPosition=bottom;labelBackgroundColor=default;verticalAlign=top;aspect=fixed;imageAspect=0;image=data:image/png,iVBORw0KGgoAAAANSUhEUgAAAB4AAAAeCAYAAAA7MK6iAAAD30lEQVRIiY1Xy5LjNgxsgJRsax67GU8qN9dmNznk//9ofmAPOUQPPlIARYmiJc+ySjMSBQHoRoOkqXtqIzNDhnNOLxkyEyPATPocQtTndRCMMXoREQKJLcMjwpPFNA7o3t7x/e9/cPv+F8zlAtgTzOkE0zaw8pF8EGevlOKAIDdRA+Y5zMloYrz9Luq7iBADIkfJFN57ten7HmPfw56f0BGhYYIVYzGQIdln9PJhCGFB5JzHNPk5KGugyTkwkb6X7LwPsI3F4AbAMqL3mMYerTXonjqAWxAFeDfAZiRUwFrR0+bZGNIiKLIQFL2fGTA2zbvgYU4t4pzQx8cHIjd4eb/iy2+/4+n8ikAESzAzrWETkGYaidL/qDEJTCYl45wGJ3CqcfBCkpggjBOC9/j6/gdu3/7Ey9c3eI4Y/v2JBg6n5w42UxvE+XzJHM0Zpxon5EIlOCwlkcBSU0NGg4pZ9gFKAK7XK56/vIFaC24veHl91cD0/NzFJA4/05cCUabQGFhr4WPANE2iZZ2T+74f0QitQr2b0DQNhnECm7UTIMCC0URer1d8+/EDt9sN1HXnmMQRlmz18um5bVucz2flUIIhJjaGYUDfDyoyhRrE1mIUwXFqtWl0oLYBU6vtJuVRaoCk6k0brTept4PH6KZZ2Q4xUBLR3O8gA7YWwQ1qa42sB1GDnFoLN0on/IfGNOpD+ljA0OVyWhBvlofcrzbVU1puHEd4l3o797IPqZWYA4KPyqyyO+dlTYPJTWCy6keSk3hWKAlzzy6KJlIVZ/RCsQQUtLq0aFas94iTdkX0Ug3WlURscxtKIEksUpC+mb+NsBtBFX2bSyBINTGf57f9XvZ/uSYcvct+bdm35YscPDtZl8rct2vf1073Fp962AVppeqSgXSf/jObZT6X6BGyOpHsl1dLXhRbGpfXnqNHqI7mZdhyI9ALa/AjNEdI6qC1bsp5+0gc2NkwZE1XNe8g/2zE7bLMi2BKNdc1XrbLB1SWjh/ZKWLMlGYKDDXIc7LDyO4E3DMQY5jR82HCJXt588k+7OYUUQkrv6vVXo7a5mjUCXGdZZn5Hr01ZXujTmSvI+xRnY5EV96XNB71be17QZzru3fcOUogGQYQb4P+irDysPXE3nq9mznd123PV+mj7G1b17b+4I7KvH0u5tvgjwR2h/hICLWiq4j3LPwC6iWwHBqj/ErI54DiJFK2VN6vZVvc1J7yO94EWTcS6FqwliVpypaGG3ThXqVlwM+2vSNWZOHZBM5jOYnME/m5TmLrUP/uBpMThxyR8tE3/QaL218S5ca/h3IPwWdjdzsF8D8iXBb9JIi04QAAAABJRU5ErkJggg==;imageBorder=#67AB9F;" vertex="1" parent="1">
          <mxGeometry x="235" y="287" width="18" height="18" as="geometry" />
        </mxCell>
        <mxCell id="0bz0VLMRa1vPZbrDY2g7-32" value="" style="shape=image;verticalLabelPosition=bottom;labelBackgroundColor=default;verticalAlign=top;aspect=fixed;imageAspect=0;image=data:image/png,iVBORw0KGgoAAAANSUhEUgAAAB4AAAAeCAYAAAA7MK6iAAAFLElEQVRIiXVXS24kRRB9+anq9jC2e8ayLNksQCBO4DUrbsBxWHIqFmw4wMCGBR6BBgsZaI8/Q/+7MjNQRFZkZTdNSekqV2ZFxHvxIjLbfP3Nt+RHLY6OjjAej9G2LRpDGCOBwhbT23f44fvvcPPjTzh+eQSHiNOPXuDi4gInk1N47/Hu9hY3N3+AL8PDANYaONfAWgsgyZzz6K8EH0KAaxsYYxBjlPdEhEQJlBI2mw0Wi0X+0DkgRsxmM1mfQDg9PcXZ2Rmur09A5PD+/gnT6RTL5RYxbiUw50yxz3dxHMMGhhpYRFAEKAZ+gnEGIUZxGiMBBIQuwiQLkMHjwxzzxQZXV4RPP/8M5+fnsMbj7dvfcH//kNH3zhgPB+29BRFgrIXnSUa93W4xHr+Q53HbwDmLTUp4fn7GarUSQ+v1Go11xeBs1uHu7g6cKv7f2UYYGo1GWCxWSInEETuUeed6xIB32xVGjYVdL2HJoRkBR41DA2D5/IDnp/dYL+aSuBA43AhYB2s9DCIeHxd4/Odn/HLzKy4vL9F1nTDFyTbWIUXmDwjMWghomgbeevirqyskIkHFH7G4OGoOYj6fy0IeG0k+ZG1IoUTOf33jRZzL5VKY46Fa4SulBNZYCCy6CO8d/O9v3uDk1URo+PiTL3B8/BKgDqvVHOsPz0jLOSxC9oqsVsBJACwuHnEbYJdr3E+fVLaFVlY1O+bntiEBYYyFgWsINkd//eVXErl3hPn8A/76+w6P0z+xXMyALsKBVZ2y2DgIVrloNEoube9Q5zNSK055vHp93KvcwUwmrynGTmiKySHLjvOY4BojAnEmK7TbZHWzMR6RS07oJC1PKR3OPztlQfE6XsNjMjkRp9aJsj0x/0KJaWUiUQffcAxBDHSbIE3BW4tuSwUBO5ZAXU8vGUGr9PKd7WV6jeQ5CyPB566SowLNQbCwbKmz8M6jC53UriAOqYiK11uQYDWpB8zvbIbOd3bOz23L4hvLNyxgFr1XGsSQM4U66Uw9XRp9rVRUrbEEYk2Z12V8Z2dsj5FrYyndU19kJ6bqOqle8h/H+9/rmnqOmxLbVXVLA1HV9WZLCfDH/EEuIbtjPBs2g6j2rlLjBj2bmXaubxEXt8waqTpRtCGkYqCOVsXFjmsGiIzU6HApW1SxmUF5pUYH15nBEMg+nTWl//dOWdExBAYBJH4G2rj9OdlhJPneo06DUr9v7FBggyPaec7MEVKKeXfaH+yQFVgrmd/zFslMaN5qp7WgNDhFrmhV9fIsm35KO1uWOtc7z/E63kAGI9lJ6nuIBq/qrRFnG7aUHHc3r8Z5cKErSkW2j7pWs9bwoXxntKhs7TJUqFZktRNpSSarWc5SHK030nkyqGxZS6QWVX2Vfs3rTZ7zQw6oUnIOBGY3X6rIQyLSclOmFLGWoiCvUPtDH1cmS85U1UH6NdA0PpeeyRsDN4dBpNQ3D+U+M9Q0g3Z87ajeP/fFoTUuejB+2FfNsCNxT66BFGF502uoLXry2KO5dsx3Nb5Tu/0+qN/wGj7gdd2mdCu1wXMsWr7XWthzbA7msFZrn4GddbqLMQvKhFaDBO8HARfEtQqNaeVARtTlCP2QZ3EQbU+7/jLIgca04VMATAyC3Pt2hw2+8o8F6vt7gtcFOpkjOoxYo90NdkiHtwOduq5sgz7rWAVYyikfV3gbtCJ7ksrtzzR7gpHDoRx1+xrXrRQ+nz7jUB18rrZ7fULWD91oyLXmTE8f9R5d53u/Aup9+1DA5U6EfwE+b56ZQ2sduwAAAABJRU5ErkJggg==;imageBorder=#67AB9F;" vertex="1" parent="1">
          <mxGeometry x="235" y="317" width="18" height="18" as="geometry" />
        </mxCell>
        <mxCell id="0bz0VLMRa1vPZbrDY2g7-33" value="&lt;span style=&quot;font-weight: 700; text-wrap-mode: nowrap;&quot;&gt;...&lt;/span&gt;" style="rounded=0;whiteSpace=wrap;html=1;fillColor=none;strokeColor=none;" vertex="1" parent="1">
          <mxGeometry x="235" y="265" width="19" height="10" as="geometry" />
        </mxCell>
        <mxCell id="0bz0VLMRa1vPZbrDY2g7-34" value="" style="rounded=1;whiteSpace=wrap;html=1;strokeColor=#7D7D7D;container=0;movable=1;resizable=1;rotatable=1;deletable=1;editable=1;locked=0;connectable=1;fillColor=none;" vertex="1" parent="1">
          <mxGeometry x="259" y="203" width="22" height="140" as="geometry" />
        </mxCell>
        <mxCell id="0bz0VLMRa1vPZbrDY2g7-35" value="" style="shape=image;verticalLabelPosition=bottom;labelBackgroundColor=default;verticalAlign=top;aspect=fixed;imageAspect=0;image=data:image/png,iVBORw0KGgoAAAANSUhEUgAAAFkAAABZCAYAAABVC4ivAAAgAElEQVR4nNVd25Ikt3E9CdSle2aWS9KiZUsRduhv/Wv+CD9IEQqH7ZAoLne3p6sApCMvQKG7ay673FVQYDRndrq6LolE5smTiWxiZv7pP/4df/zP/8Nf/nQCr8Dv/+k7/OEP/4bpXx+A+wSeF5z5b3gsf8bKKzIYNAEDAVQCuACUA4bzA8LP3+Ld/xD++F8r/vtPM/78v9/hL8tvcSJ53eEj3+HMM85IWJDAKABY/wMKCIQDRgwUQRQQGBgY+vfgL/mPKegn5DPFfkEhgJnBZP/Wz8jnQZgxYKIBEyIGDAhynF/7uVH0tR1zezQjtOsBxEAg+wP5wYP8b1nPWNaEku0kmQtySYC8SF4rmJK+x5kh5/DzgohBiPrvGIAwBISB/H2RDrcb0L8wVAgqVN5u1F7+qXqwv8Xd558aherhrNe4PDPZpfREL53pWoSbAPeng/yqm1AvPtiEfP6IZRFhEyZiFXAuK4AzRLWZFhAygmgALcgiuwzEIbocTcxTiMAQMYz+nmpbQUDWiwXetFZnvemv/Mz+/ATWpTG0ZxChlU4+rDPFbWouHp7s80Qm2Kblcid6rmJCl5Px06KrI+ik04UA7crBn6Q0Ucv/iO3+SM9vx8s5kB9XrOeENbEdSHIjosFFP6Wa2z5ELqAqELiu6EEIISDGiBAIFIL+zY7NnWZf64d/XgTHzz90fZfpVjz8gpKyf4LrRH3mIJeBPXLYvb/riUJ6XJEWRin1ZtmEjFUFLecJkVTYzHYJObnZPAJnmwyxRfoKhBjIFilX3WU9b9WI+pM3sXW3GJqZ4G1uO2HWP1arzDcPl5n1tQmWb0/0ghZvQiJVMqJnPvvMojAhnwvEOshxIbgdZDHQyUy/eA8qzfHIk6uBZxOGzA4V3ux0u6kqAnvpeanTJnDTY1nKhdDpiWlIe7g6Kb7Kt0VaZ623t03XbgTCF6voZUHTlQ3v/03dROuif+Iz+iTrSkiFVJPJhajqqypMvixsqQe3pToXYt+KLfVqi+qSl/eDmprqdkyTbU2b8dL5IeoEVt0lX3h02pEDXSlPvXY/rk1KW1FNuPvo4rWGROXAtjq36b0d6l3WTMhrgViIoC5MbOogNsKmSD128YdgNQV6MyWrBsf6cHKImN5c1GyoyaDNyZEvdbOJ5BpsP8XsqNZuU2IayZeaUW1p9Qnkou4fTo4vVeh+/mvJ1bPYozyNG67fvbTldt1AFb2Yw7tWCkMXi6A1QsibXY2CxyI1bw3XWj1RqP6LHbcGRRhVyOxYMUZ5h5uAezsrp8rYTESxqfVbdyPigg/+WWrOjdUn1OfViensb9XyciGwanaoTSA6nX5KwDvu9ep9G4Hdfe+cLJiQzaYOLpxQgb7BimYXqSID3pyUAgjVfrfVclwRwQSz33rp3Lwxq0OibbFy1Vzy81RBb+Bep7EH501slwIhtlmk7tiG2K+k0ozGnlQ+cTRn3t1PfzmDcGdTKw0oCBiG4EuUmt1SUYQKW6rJJn+Hm17YBYtOiCzF0FnP+ps6UInmur+5DekEQ01rd0e3bC9MxfUnquAb3Cy+sjbnSDsvXJ2zvYhurvfSUHNRFg8Ho0VtdZnDnZ1FA0UjwXZqh2MG6dhRf2nhBYJhyCZkETo7HLq48Q3C7SJoqk7t9qlucbJbaLZ1UBFs2BFGE/JL4HpH4C/p/vX7eh8C34SHmEdgHAaMMZpp4NLwKLtSl3J5Aqo2sUGp0rCyAZMu2Gg3cXmSW6vHnebTq7TlelQQuE3y8wjgc8drjI1qMi+EOTAOA3CYBsyTRWxwhycvs3elCSVgs9d1FBVetmBBTcJmMqh78BqgtMC68Q4vi6A9FNENZGv3RtURblINrtkVDXyuKf6cSFGFHBNhHhnHOeIwRUxTBMnaFkMtcKEUQxhXY4sRPJZnRuGssAwU3X67gBVPliboC+dwtWTpypDcPOgrH27zKzXS7O3wdVDx/PhEq3IxVMgCqA8z4TgPGCcheAIoGjYmj/xyKZvRv0BA3R1SxQxGwBBVlg6dPaYLrSLuNfj1WlKe0fkeS9drbGjjMkh87SWvJ2LHRTw5dPUOZFp8PE6Y5og4wujKaHRbyUk1tMGeRuRQuyA76oiRG9QzJGUWOzi3ETtb299k7/QqxUAX17p8wFu2opfItTD9WkTdOvm8QU1R6op8+Uwq5HEgNRPHwwHzPGGYBtAYmwEtJenLKEh/UIdc3L30QRTauYD9p2nClV3W0JydA+ENR+/g2WuBkt8AX/2triN0HHTgXqJOC9DGjnyusBuP84pzqLkYh4B5HnGYR9XkMBqWY8qeecgoDWn47frNm8WQY0RLDboFf20kETeNRhN0RRxPEBMX3vDTRMHXAmTgJpbpBPSSxXhO83ui86nzqJCPw4DDPGGagHEk48tDBsUMDgU5CUbO7rm3K5Zi+JjYfw+slKjg7VD5pWA3EuXFwWO6+hez89m1cnBiCbRj8zybopG9MixXD6eIYVs5l1reBy5ynAVCdZ2EToRPLX92pagrqz+uXKxQXPy9CTkMIhzjJOBLXp/CbVhWba6EvgcinT2GRorUwlkl7WNwrG1hQSV/6jIL1YjfzP+GCHrbUX1svWq/CqhbWZeCwQsL+lZHyeHf7ZGXlOv14Jc0OY4SQGS1uWtJGKu2CR0ZKvHIDROTq1pxLbbgI2qoLPMpv2vU6AFJv3TFNtcgwQRdRcpdLo6vljd3ZNAzIrucl5tA5rVG55oP/qUj1KsLUZJKRk4LmD31pOFFtkwJb7YN2ELdqkEqZLcNZi6oCSoo70ptJYQOWwQPy2v6iqmDd9Trbf/ge3pz6wipafOGYah9dl9bP3W8OuIzBpCQhR8W4xAGxBBQJNdXtSpUREGKGrgzmiIWoUabhsvnXFiSPFXYRhspQx344e637ZRiJ4sxdEqL7sSCfa6QA24PsHdjJ+DQpq9cWNDnhFuz4GFHmhewc+cUFyUBepBGam4SyKK2wkl1Wdg20lSvs3PKT7hYapxcsZKAEFkFwcLqwQUm0Z7RiqG5vhs9aHfqmRZnOUITyyaO4gR58PVWqrXmPX0Ofu/XWIA6Gmm7ds0296UL1Ymx+5F6Ge5PtzMJ2DSZ1ERoclQyIpRdXtlzfXX5BveF7md719+mzhNHwsAJo6dCzltmZIvDdixsNSLu+cm5kkpV9m7M01ZcyfJLN3gh4GZ6yHzC7bh1fteCu0XqfKPFT4Xnm5BdEFHDPQ863FygI85jTbVIFpu6C1JplA8cgRhIsaCjaq5qE8eWpejDjUtxd47QR2nnqY8YmuAvZbcX2VGnyXtkJF98djNF+yH0npl4it8wCBeK5doGQRrCW5CZOWINQiQYqZrMnhdjVPaemhU1pi4b/mv3WLMkEVEu4DaRapTXwnJqoXrRVx+uRFuu1C9T7jSHGrimhmJDJ+TmrVs9CxMaabTnRNunGl17KebKubyGXDJNDgk8TgjjgDhGrf4psfJrW8UPqGZM/EEaR+DIQOovSlbOWfVXWaEeG0cLu1E2mpKCh+bFhcv6U+qVIpmGlSayjYkOdbn2M7WJoOFauwUPXrh0Qf0lRHx69O899fvzQ68oZngcGdM8qKBpGBCiQbLguT1xfl4Q1M1pn7qs05utMEYixlAQQrXCxjUTVQIJ3dKsr+wFfmiazE2cZl4KbfwEBVxImf2PG4apaS77WTPJrxfPlxmqyfMhYBQNngPCZPVsElqrgItXWHUOhRlN+9CQgsM8VZ2iDF7Qs+cWYKoRUMq046a5mh47Zy/g3FVzcsv52aQrArhwcH1xTQ3l6QKRbMUofSD9dxLydDdgiBNoDMDIwOhhNcyOaWDR4JF7ftGqEtq/K5C0kq6gHEaMXhSjYgt6sejOK1xYXddDsoKYisc3BFtFUvFwaWUAaO90voHsdsTiRedbwlUByhdIUl/gmBeFHIRDlrzeGMDCYURPW3tJZKiskFYZFXtJZW2ppoQVt6r1rDSnCDgy4sBNuFInPCp/TfbwjlhEAKlWXrbAI+hxwWS6pau6Mi/ycoLogQYZIvfyHGpkVKwmo9GtrxHN6wW96xauhRynYJlUIepHbILm0iBZBeg5Z6xSy7wychbLQghD0ZB8QMEQHLALIzcyDocIsUCPOWFA1uBEkgSDFCWWrZiP2SxydXUiICkEN/63+PtZKVXqsDN14Y0VQNpvQxU0dcXj1MG6p4iemwTByypPuOFRL4Y5PoHGIyFMImQRdvCivtyq0UszFSIQqa53RkqCgiICTxoh6sQE0WBgnBjHu4jDQbQpISLrS4KT6KaBLmwlnHpkRGIV0Oia2l6t7GsTcP9f9EKziunpSrhfwxY/N2loEG4MiCLcaC91LA0jey2c+jgzFSkVlGyxZpa17HUaep3gZmJkDCNhOkbMYo5OBYGTsn2SCQkdTrY79bDdtTnAkgDRQW1uYTAhkyVma4lYcOfboKJy1z4V5JXgN0nVZ4R2TXfuQenuLXomEGlCLiOhTMFYNHV4KzgnJYzEDKhQRKAlISUgJxF6sJLZ7GcSbRbtL8ZRqCbPwDSLySiYY8KprIicMLHU8JM6JjP3zi00h5gQhViSbEspTu/LXRnBDw+M9L7UoUYMbsfr/6tG12A8+mp5lSZzVxH1BL98cThqOdkzQg5OshtnWU1AVvtbslEvEmCoTfQ4gktXYlWMKCqe7yMt9Yqa+RZoOM4Bw5AQ8gKipBnwUMRuWpBgoUctoEKzsEOBCrAiZgvdHW+0YkTSjEtohGjVbPbIFM+S7c8J7ksN02TCli8SBo6zlgBkNn4iWrGx2eFapVmTkZ5iqrZShiKVKaJMI6ZDxHwYMErIfk5mMlDRhWHZgQVJOOGvYo1qi+cQ9b0g9xPMPLEzblaMzg0Jqw1WTiSaTVbty5VGueDCX0IDXzpYcSE7ZSmchdRbCETTKnvfPlWTotm2NYj9Fu2XhxscC6ujikWz3EGCmRTULh+OpAhDsWpJXhJgpQEK2kTAQvjzqhouIGeigFnKxiJjyF6oLZ8lS4OZe9tQr5oLr+totriSSVXAn+HyeAdtfLaQJVmqdxk9EclOsodgofEY3HcQ1CiroE2DtEBRg5VsYe5oqi0RY5wk0AGGecU4GE4eYFAutK1nxl2MbGhg4IIDSclYwRQWTYWpgMR8Kb/huUa3usLoGf1kQh38rMYh5/agW2nCrSCfEv8rNke9XsgaSk9WyMLBw1exd3EASfQmODoXlCUrDhVbOw+TPlqobEOxRCxHp3SkqmAuiIeMeDjhcD9iflcwpI8Y8NG3q40euheFdhMXHEPADw93+P13D5hoBR4XpFPGj+8z1lxa3ahMfsQEyhEm5qxoZMt+dJL1f9fsxjV9eiPkmvb6AlrchBwPImRSAWsWRJev7QrVTLbUxuVVeQnVcCnyHs2DiwMLZPtNOPgkCecvnxsL4pwR5xXHY8RxInxICQOdEPiASFGDl1gsezIh4Y4D7gPju4eA4zAiHBNOQ8b5xFhybgwgKtSTiWL4ZLOH3JsdLvS0578tm6lvfFmr3HAyjrbNFh4Si8ceBo/8JiXV3PcHtaPjONrup2JJ1Br6iuNRZihLmVfBMLIGJdNo2q8Tw6a54tAEmo8h6MSMyLijgIcx4u39jDdHcZYZP6WEv1JpuFmcJ7OTK7zxJ+R7W0JPFj0DrUqbsq9LF3lYPYDnSSM9tWZ5tcguFOcxxJKMqsGaaOWIGCZbVsUgXCsEZ6uy1zOPhHFmDAf5SYiHhPg+IRaHaIIGdBuFucP7eI8fvv0GP/z2AT/8cIdvDxnnnx6xfiBM44pwXnSSBPolunMYtwUX3CJAvIqh+BIRYE/aPstdiGOT4uQiXHIVlsVWXoLvPO00qPemErbHkV9z3ihLyXjrnmBh88RcQIU8HAritCCEFUECnOq6JIix6i58c7jHv/zzb/C7393jN7854mF8xM+J8P6QMclncVYRy3+ZQwutezbsUxZ6z/N9zWHOWHDYQYoMR6O8Sp/Y2mwd6m7U5NFJXaqCY8VmYzWqUmzLkKxocc4Y74DpCDUdUTddFiWTRiGLnEMWU3AcgR++PeC33x/x/fcTDsMKfsx4dzhjDCeQnB/Fp3fbUfVrHybkMYLnAUqXBTIBCpfZsoXsXrgShYySsm8ULOCQkLIVxSitGRIwZnWmOBQMdwXDMWlSYCOKigYco17AIrTjAHz/zYjvvxvw8JYxxILl3RnT9AEUflJeI+JeP2lmYsMSfbK/7Gn1jprflrV/nWFCFrA7BfDseTxVTsvX1U05VHeblkozs7Zl4GxVRlngnxIZgp09kz0zMBfQnBCEiRMUEx5BOCPiaNFeVxB+P0V8+82EN28jhjshrB8xzydMwwcA7508Eot8aPXBYS9kphaDtLGx0F92vBQ9osfu4uB48BSC4FwRXspqby00FfKCDQcX4w6s7qEozZmoFiSyOUx5VzR5TAhTxnBfMN4LtBMBy2vVoGTk6Ng34TAWfPMm4PBQgPkMrB8Qx/cA/QzwR9e9OwuXC7WMB15D/XxhWPYpw4RcHAJFg121jkJCay7pom6ieMqewlaStaomW9LUinW8lYOE2ZIIOEwY7wumO8Y4rxjeP6oTG7Fi9G4YGSdM8Q53x4JwXIBRtPcdcvwRa/krCv/suZXUQuZKxN8UIvHGTT83fklhYQtUXkE+mZCTVw76GtSi75CwCuVZBA0wgrBxbLVAhWrVJ7SjiwYAwiHX4vzIakIkkhNEEgRZCIy7A+ajhMsJQ1lUmye10IJjFhymFYd5BSYBzSegfEDGT0jlbyj8AYx7zZLU/da19s4eFpud2CiLXf0uVzb8c8anTJDlk3NBrDZ4sC4qRXoNlRWZF31PgxHpN8Sepg+D5dic99AgQbcMRyewvTJ/MgFPx4DxWHB3H7AcgXcfFnV+gx6UVJ/nMWEYFijHGc8AnZD5PZb8TjUdOGjZGNf66F2mvHnr3UCDu3fqhvOvPVTISYS8ZNRMvZDmSXMRghgW38pHWyF4cNpGblIErPUZ0fNpY9tPog81CHfBGI+ClRnHB8LpWEAfH0G8IuKAFSdFJOO0IoaPUgQChAUIH5H4R5zSj3hUhHNn5S9Cv3pJQo1CN4HXzgBbovV6tL0eTwl4Ky/6IsOoTgkmxMkVeDeAxbiBYH17umosI8WFNLInxSgCp+yFI8YQGanvSXrt/lQwzKS5vuNdwOEOCD8u4HxyXX7EGM+YxjMonACBgOERoAXnfMJp/YCURbzJ4VrU7DZttZYbfqhdDX5JkPEFBYxGdWbNLQErWxARs+biVNC6PSEol1yhG1Hd2xE9s7ENZsvVwYUsgY6gFmlxNh4DjveTFtOoWchJV4uaigmYZzETi4diosknrOWEc3pEUn+Q3W3EFukFi0s3M1GbljwzWj3cF0qsvnQec3zeg4nFZIzJClR0a1nxSnpziqqphWx7gxA2tZQW3U2TLV1uzaG8sdtAiJKOOg5qoyUHGM7FazIC7g8jDofJuBJvnMHaPW7FWee/eBEXdci6ctI9jrgsOXlpJ+nzofjrpuF1xS3FyG+hb7F41Bfce9OWtxPHpvMh/K/Smrh0LS2j6EkhgXTSR260FRIPAdMxYTxI3d2K8cNZdFhXxv1xVOdYJBeodRaLmq61MM7JFlnxjAhzzS+GDVCoNOMNbrgh6a9SUC+JL/jK2I8O+VWmxVi4MkDrZsUA6y5fktWOGKIGH+Q7XsT5WbH8tv9DNVfygV73H7040by3YGVBLKtCsnicMDw8YnggHO8KDu/O4PTRor15wCSJg7C6SVrUHKVEWLWcQ2uPuiLyiEKhovZt5163t3BPS3uZvEQotf3YVHOG1yIm3wRaur/ZyN2ZjU8WTZaHKMZbmJCLCljKBOqW3+B76DS8DmgbdrITd4G9ENx3Tdk+PenzILxIQjxGjA8F0z3j+Ibw8JcEpEVzjJOkrHQH1tlCSukPIQxdKirkzEInTRqIQ+On6AFRLd/aTAhdGY/PHxWLh93t9OQzoWbUeyQ8qcm8+joS9ZXiiWglU8WYeNsIqRTntsW3aIQXsEo9crZik1oqoBX6+rwaugB0UEELbz0fR8XL84ExD4RFwxZ7nLJmFMkhyv2ILqwrkvSf0pfuA/AS2K0/XYvrugRqb6X3go5rXuPJ0VWt7OFtXCQFtnVxzZlYMFII41K8DJKRQ9YicE3yZEs3CRkkhSUK92BzoXU91qnBil9EXB5uZzUtklLyjgNjUcotzoR5ktYPQTkNcW7SprSsj8iPEUW9nJmknAhYo1UjpmjlijyAaGw957T4pPaKpCrwLQzcE+ZGLj4fjLyGkOfLCuqLYt4LIbPYZH0gi97UVNRq+OJN84qRQaV2tWKr8LRN7NZXToKYoqUDxWuLxVUN6iQFFgqJHw7AQaDckTGO2Tliwvr4iPUUkKS11zlI0YVhbfUX9pOct/Ns7WWPhU4s3NFFX58Wot210U+Mm4sATgGQGGQUW1xsycfaZ8i5/NyZBFijJ52L4i0byYxz8ZBaghlBtoIWaEgaYtOYNRUlAck8iYBXncHzx0d8fA8sp3uU8wzbhCVOVcL3SbVYX1J2+lXLB7/8MHPxSMCi20rByc1GVymEwq7U3s+z1KVpRl+a8Klco6m5t+602Qz+D0EOQuSPi4XiU9C+GoQTmCc8fviAx5+F3fwW6TFgmsRGy6oYlHsOdNQMt2R1ubO03CzxttvmtWVZX5O3uNHkLHZvtSJwMRuhws22U9HsXm1ySM3sUXtQoBVmmoC1tMAqPNseERH0nBGkFmOOGCQbPS5Ia8Ka32E9Ecr5jPJ40HQYr1LoKFnx2V6YHcZF4B9Gj6vzzbIkJY0f1HSIUH1rtZmGtm9ka+FpiWrX+FA7BHgRSa0qqgUQ3s6bRcjHguGeFcrNbzIOR8kNvkfCT1jX90BeDBNq01sCp0GdngZLdZ8Fh4Yseratr7ew8etIABpOFg0pk3IJ8kCcvQVIdXieWPWyjFZRqWQSU4u8auMQ9uJB61pr24QVfgjCmDPoriDeZyXyh7sTyruPKIIy4hmRVmWYUSJYIN3KBplrFXLXoZe59/99mG2DQbsm4SVU8ZpxG3BfYpB+eq0mj0d1MPJg1gLSmk33H6ca6CmtGbquLNiq2ckyJrZHI3QtKNnatVfnN0tiNWN6SDh8kxHms+Zw79+MmASBiDMULntZkdekAQk1XfVr3gjp2hHuC3j/s7901Mndv6ahC/mRHRop4DduuLZHrp1bg+8HCR6+qllxwG5dgGufT7OZqn11DWudHSshT5IdeRMwf0N4+C7im/cDpqXg7bcHRR5qiFYRckJaVl1JNea66SPHz1VOfCme7dPGdeG4V3W6gCW8JrHPUVFDDVtto01sGx1t085GNGtlpnLKto2sUFSCX0q9NMst7w3WdFVNxkMBvQ2Y3xTcfxfxW77Hcj7gzVtCnN3GC8pZEvKyaHVC0EqN6nS56x7TM3L7uPlawy/fe3nsBjR+ybDzPnf99jchF79Zb7isglMuwfsnO8VZVyR1ZIwe5ykpQm2oNDhp4rUbtfNV0MI30CzccsZ8z7j/bsBhmNX2P7wdlVMOQwKLFksXr5S0ZVr/KNT2UNSiG74SNnbMx7Xgf9l4CaXfQrhsJHvtCwFvUh1j0i1dsl+vBPL9fMU7fdfeF5WtqtsVqXNQsmyyBZ7EnfOTvYOM+c2A8r2Uh0WMYcJ0CLoDSxKKJZ+R1rM2z+ayta/U3ay1e8Gzj/ZlTIUmgLZtR/Y3fnlzTz+sE7j4mSRlsAPgpdpqHoKllMx5bQ9GzVhvWeO6cGVVtC25tc63rnMt1RcHGHS7w/R2RlijbgySbIf0o9NCG6n5kI1B61nRxZaBLho94qZNZ7kyA3wl8F3xvZqQf16etUDBtzZf7d2mJuSFjL+gsRHfjRiv0vNgpPXwqZCNd+wdbz0slKFTwr/YF8OodgSlr8MDYeIBZbD+zVGKldOqBNG6PiItSZmoUK5b2YQd82APGRpyfknVvJW7VzbvHlE5867R39OF4Xsd4uynCvnDx4zTCbh/EIbLoio4IUS1lVm74PZhy0pvX5yyNQg3G2LbeG0julYixdXJ9ACSemiR7Jg0m42PbBp8lijnjJRP0AreNHhFf9gmlby4qxHmfSWFk/WvWM9bN4GdY7vuLb1gnwCFVz5j28hZWk/7JCyamAWp9p5U07LXYWjKzpeW7tGgjX2zm9icHrq+8hvMir7RXR5+0VSXVMfLRnm11xpBZts+doooOerekFVw8jqBk1Uk2/ea2KYcxfRdv6LLb1n4FMe2eZGbwdfHvcb09NjSRthsclG7zJptsLBVzUWp38qAugXKHjRQ/TKd1saYWzxbWgqodlCRNFHxbi2Dar5dh2azwVJ6pUBkYYWCizi9wkgpWnFp8fPr/hKnOxEuCsD3CPOXRUzt/7dvboafdirtLk0M3U5D93kV8vm8YpHSV0lqhslDatvLR7l69U1zKo3L/QO2cJe6HnLbJjorTBSSP2h/9yjfJxUP5gLk2FPSyZM8SUorUpL92qSFNzpBZNvS2X1G8Ir/p2zvdSO+vcHYx7n2SNch+nPjMjlA3efRa3IpxYVncEU3pTvqsp6bjpVbp8Mtk41qq9k7BFw9nJJJRTId2Wo8pGen0J7Br6mlXklp0aSlYUaprutZa24qUS+dvmQVcNv79fcjgH7JlbyCiG1vqGee1bZmpzYrdenRnWZMKLT017bk9pdrdS7ZJzcpJ71qxVCIZy+GOYNiQqbVKknVjhPOZzEZk92mOzvSaHLXVf2qRs9hOHcRXFs8iKgEfW6m2Oowgq/BUBOmmzWqycS95Vt37+s35LDZbSlkHOWr6Nwh2nfPrS1hsK6Mx3NAypNvYIiaFZHSAG6trn/9AsbWF2705jXeL1KqN2UL8PVXI5mx8Sx8V5THHjIrlu42McO/YAU9/KsQt0v/K35Oqs1SZydJq3AwJ7IAAAHCSURBVJQZi4TWEpQ4pGfr+1Jb4n5tWX2xoUIedLuYh9Te95LLVVRVrG/C1sLMmLb+698uvwbo8vfosSS8fY70Y17WR2szWZJtG/ZJzGx7S8/rowpaK0W9rUjtyfIPJ2Ttd2xNgzzVRKhf/En+nSHX3xJ2kRGuDrB5dHeGqN9x5YyGfCFisSIQbU4im9blPNm+wER8gjYyESdZIs7ngmURfnoGCefNVZO99gL89/R9T46X+Glv7VtbQ4YtZK29kj3S4940wBOptAWwPbnXDrn61kXaLE49hRc1sn0xV90HlIsiHv3irxJdsEML+XeDh1/xsArY4lCBA1o7cGw5uuB7rksNlds+5q3gTkXsmRHuvkdXtJeqbfbdU1pvV5OzuSgmLv69Mdaxi/RLv4TGkIRCkRItmkDk5NU/mLnwLR5SUDc00sVye7WoEAqbNOPBdZe+l2u5NqMS1dR9317tF1+F3DIG6CqSTKg5+dcdSWpvlX9HLAvr380OTyDZ/6ZFLUMXQvzagZyN1j/5xqxw/xzsAcDTo8/5bV8+uxH2VlLg1UjNtnuCVoUdUJJUcTLWxSCccB7q6PSbDPqy2J0w9tc6APw/Xwfqw/iRy/sAAAAASUVORK5CYII=;imageBorder=#67AB9F;container=0;movable=1;resizable=1;rotatable=1;deletable=1;editable=1;locked=0;connectable=1;" vertex="1" parent="1">
          <mxGeometry x="261" y="287" width="18" height="18" as="geometry" />
        </mxCell>
        <mxCell id="0bz0VLMRa1vPZbrDY2g7-36" value="" style="shape=image;verticalLabelPosition=bottom;labelBackgroundColor=default;verticalAlign=top;imageAspect=0;image=data:image/png,iVBORw0KGgoAAAANSUhEUgAAAFgAAABZCAYAAAC6yeORAAAgAElEQVR4nN19jXrjxq5kAd1NSvY4uWf3bffR9pV297v35owtiexu7FdAk6I9f57kzCQ5nM/JjC3JFAgChUIBkv+t/8tUDDxM4gsGiCSYZNxWQ7WGJoKGBDOgyYRqM7oIumV0AAsaKjJavBIaFBVAQ/cvE4MZH9mB8RiIofkvjH9vP/nrHJ8/I+O5j/M1ka+ebZ7LxV9IxKB8Ho0MRUoZ3SbkDlTrWAGs3dxoIgoghXHEIMhIUDeqvwaan4SOX9L5eOkwE/CPG3ec/t28/55H/o+nCvTV36JIdxfukpByh5igLRm3brjUjls1LI3mE6xIqBbGd8NC3VjJr6i6tya3nkAF6CZucNsNLP76NkxLw+u4NPrG6Efjf91f/npH/h+/JKC1uIVpETN0OqbSYB1GwzZBXjLy1ZBeOpZWw8Qyue9WGhQJHcp7wcOIG87tGD6rw1A0sH3h5pNPDNjHBbl/1/4iRjZ3iRFav/K4/PjQYL3DtPttLB5bFM0N3CDdMPeCtCSINtjKW90gnYZNkJ7Hr1K/SGF69e94BKFXm3msah5/NqPd4/1meviFkGH8v3bQ2O/Db5xmnj48IyJrhfbmXkMz91Qgcob2jl47JBtar2hr9/i81oprFciakCxiOH/lgjDmOm57j+jDmbuFT25eaeNyhuk3b5DdS4/hY3sff7b3iniSGu9CvnlH5fk/XmDSPPql2gBb0FRgeaZ/Qpqg1wa5VaxujoR+rVhb95CxrhlWDTfG3BrG7AgD87FuTLHduFv641e3++X/NDzYOHnbf/5nHzIQgxzur2+dV86PDZbogbRxh7UGUYOUDMUKaQptGWXpOCnvcENLyrCNpIKlNvTVIDdDrQuSEVNgJD2ih0AW4veIjT/wOB/2lTcRdlyAw7v4qyANhkZV9ROXd55PxvkFkmgIxuIKq9dArsWA1JAYNtqEPCWcmqEtgkYIt6S4vZeMFRcUPkbaSHnqyc9DDQqaI+E+jBthwQ5m3RKe7o84nvxfDzd8z4XO9kQD54jD6wpt10gzk8FBcE9A7UjXjnzrSA+CpDNsmoDSINfkV1X0DOuK+nLBagWz+7FgVaD3Pq76PZl5sqM39Dsmth0lGDYQ8r1v6EceDBH0YvuOc8p4XMJQfQFuN1i/OqbSE6BFIe0G3Pi9BbIa8pKgqUFaRyoNuShKzphyglXg+XpBbiuyzJE6eVsh7+AsvDftweDf/chy/shgCvQbOl7Q2g2tJOChopcO6Q2SKiALUjNMfYZcK2S9QdKMlBUJE7RnLEkxyQuS0aQdk7DaSx4ewksH3mYx43g5vYoAR8jz72L6jMdLlAHrBb0+o8sVMhfgLLCijhCk34B2gc2AnM5Qq9C0utFFkxvKquJ0mvHhwbA8V7R6Q8MJDBbNvXhY0nDwZnll4DuufB8E+jsc2R6a41C7LB6DxVbIrNAzsW+D3lZgvcL02cOxTZ5OkZpAMyD5AqTiP7CWUEVxs4rrbwtWW1G8+AgDJ8he0cmAb3fryiuwtv3XXv379cX43Pf/ake2KUC+EHfV1as5fTDIw+DD+E7WBTXf0CaahWGhuldrS9Bbgy4RRshlrFIxX28oz4qlXdCMePqM5PQQY9LwXRYn9HzBG2R5/Pfd4F8KGX91L894IP415yN6rw7X6L040QyrG6IvN9TphkqvRXEvFKsQPk+KhwllOd0SSl8xv6w4PyvWjzesdhnPUYdhQeqEJ/cNUHzRQn/3AEEg9pQgVbyqMmtQ7ZCzAefBeBIurQ391px0y2TcmPQ6oIzN+RlSFGmakHN23vjhRXB7EVzXFZfrDYrFKc0tTDjXMQgg54/t02JCPuPXf8cj69MEW26wJk4/TlmBR4GdaXRFqguQK1oGLANdK0pOXvXxj878++wJUoqgaMH5mnF9zpg+XpCvNOiEAsGCB+eNiSW9ACGXbDISoOysw9tS9HNG3rz+W2TL7z++/sJxpt/+5VkfMlCqowDp5CAMOMG/Eu/hW/dSmvUuGbdO3sLZm40/bhG/29V/XmzG48sZ9SPw238Dvz1fgfaMKKAndJtHmDAvq+WQyHbjvcco9vcIIBkPEtWaJxxFJ059AIRxmPfvpaLmip46Or2YJTXRhXPGcPyMfnG83MsNqjecLkD7qHj4f4L5n8ByeUa2M7IYUo8Wk/pXdyO13Rveb7K/S3TORmSQWeoWT0Yke2w2yCwsw2BzQ9tCRCFJ04G5h3HZBuIN3q9OAqEIUirQq+DDM/DrPwr+65+G5+tHkG7OsrhRMTwYh9J463bcGYs/nZj86r1k70QwmQkKc4ZIgS4FbVlgRYASL0OvbUXcuEKQoQKZJDCXjqKB6KMn5zRoeflg0KeK+VfB+Qko/9WwtBvUIuF1ZG+oYuMgbPNoedVSOhLxXzPD+4/t9fSdz9AvnMOXvv8ZA4MJi++1KWTO6F08TDhboNFG2gxObjhpgkwa5TXJGvKcfYW14kYzUp1PK/Qfhum/F5z+M2P6vwnXpaLghoIrGs6e3HgxHKnIYNlM3vjN8V+vm0yy4+Pv8fYjffTe58hX/v5tnJNHp9IrAJkSsEoQ8KQpTcNjs0Bn9Ycl8rt8XKa3pmDF6MFa/Z+oFfbhBruu0F8E8y8TTo9nvPyzIzWGiMDFgYSLl9tu5K6f4YY/Z5ztX38EPnxveSJv/j+aAO/AkWwEOQ0nJbnhdHF+0dEBsZAkQZrUYzLjrpuBXp/o48U7IKaLB2hlT49xu3bYuaM8TZg/dEyPHXNW3HpFdPI61EjEJ3/NPmDXhiruXMUWp+2zN/XdH39kzD6SJZ9D69/y4MrAmt2DaeA0F9hydRlJokvSwLkgz3GLuvftbeI22v00VIXoDSgFUhP0UTF9MMxPwPmx45+nK3TJKEisDz0EsehIVnYzMjR5xWe288Nh8B8hSbFDLP0DL/GNIwsLidH+ZWdDS0ZrGu0cEsyq0JyHTgJxK7tCh8Zd4/ryMYk9pKt7tXv7Q0Z6FJyeCs6Phny+Qn4rbrwcshUkN2hyZMEq0gZPobtXvk53f85x+M2/o3eVrS3eIGORoEmcZO81RxJi40xtfD+HJ9Xu97R5JdeGkmeUVOkacZkQ79ygbmDD+VfD6QMg/+fmBL5GA39rfW695yEr+lRC9Xcul3Nfl0AQDr1I2iS/xYlr2aHobonAUU6WM/l1dQM3FhcqUCIKNk7JsjF+nBLQJ+BDRvml4vwfCQ+/GlK6eaLLrgXq7s304j40cV9Pa18+/nzM/OUjt3Vx8UjyOMxqNjkcI5pgL8285d48cbHwaCQs1rp7MMNKycVDhCVDlqA87dSc8kyP3bHw+UlQ8oK63NBkRbHmrX0dXISbaLfov08rKXf3yAqV8GAa2dkxKicZCsg/UPRXV/TFQsa2dvRmIRgkZpYRPujhXnx0CLvS5/iangTzk2GaG5aXGxILDlmRrCGbOiEv3hR9P4D/uxxZaEBbnUJMjnnZoEgOlVISVDQXmVDds64k5XeJjqMJRo/EWGItmDJPUxUsYPQMgMT9h4b81PHwq2D9rWJpLxC7QvEhfg95OYmX/T2mvats7kqgrQO8iUXM/pyLpl4vUHMmNaoloom8tXM6Wq1YlgW3tWOtFmoccW4oOCJ/VEX3giO4ClKazsCdDHg06Acg/2L48D8T5kfG6RcILk5g8hKKa+JGqBD9XVTO5woP+YZ292ccmX01delNiKO91NWAaLWHcZelejeJD8spMtJG1iCFFm0XOMm4OCnkWOyYpF+TFxynXwzpXNH/eYHhhsSmKUaGkyEYNPkhAWLz6J9uYMviocATGrnd3LySo0eufUVbG1tyrgueh3cXzcEVW0XVMLJXWnwNPrcYJFFBfAHOM/ChYfrVcP6lojwuWFmQtGeot5OyFzSOSBy6sXFK7bAOnae8CQDfhqO7dPYvcGTNVFKmSHLeB4pTpPe2Frf+dpDbmcqMicpLLw6iSEjFkLN5DG8Ou8hLMJys0LIApysKMfEvwInGnjPqC8PSIOwjM36iRfv7d+ScTRM3XB/8Lt8wvbk2em51tECYeyqKUy44nR9QXNpKdLGG10+GrNWf3xiX+fcS0iirN8hpgT4kzE/qvESZqssEOpZRdKQDhfiW1PlULfwe5/xrcMpuYIVpEDlEFJT+d976dXUj07HLRD4iY84nTKcZ6oIIClJYUteAZB57K3hHhF6iwXSFTI1oG3ISlF8K5qeEcm5IzzesxOD0dkuDgg/9mnxyh/+++/2Y+P4sY2fLwe3yloYTac2F1jRcH32v5DVIQikFStXP3uiRIIqK7Q6oDqfFk5zyNUkmlRX6oJ7kHv4hDtd++61C16vfMVuP2Un4vU/Xh4nuuPhbJvqaGOWtR7+9ZD/K/NlInpfNwBpJqtUYYlEgn8Rb8lN6QNYJpsEjuPWdR/ZI7h0OxmvOdtDIcHKoe0ca8xXyCKQnRXpccfplxlwqFiffb6PASOOU9NXsQx9t401jLAcl5isDycF830ALcfHSVx/zrzqylRxQKw32zE8gQgPDRqZKVRhJ5hBVs2x2KFUDLzPEFBYooaAkf+wwj+GBwhRqKOYVOCvsIUEeV5THgqkQZbzAEEgielSvfdB2z3tNkH/OuG++89mw8ikO+QkGDu+zMUYwoOzwFkpTp1LYuPOhF5azTvZwvKuvXuaaFi+PvSOiGeb/N+9QO7ZL0TExQrezYn5ih0Mx5Ybs/blbaAQshmZ0w6v7LIS8iyb8Xpxrn4gFfsyRvTuhdzWj0WiSoOwQW0JR9s/OHO8MwscJiu4XpOngcwlDGD4ZMsp4PcISFhva/AKy4yyMwx8U5w8CPZujCJdnhZjVKVKROBcxG31m7GLsvQ8nocvY5+5s9KbloMf60oXA29fCnlS/GeMPpff91b5+ZKW6XUIipTQs0xk7GFMYT3jrthgsdBjXQ8MWzUqNRObClOh+sIe3j4z6aNhAEYwAp47yIJgeDGkmF7citJdbZyTELI6LP4Mj7NXftzg9hsiIfkTe3S8+vu6P9OQ86uIxTqUOwaTMcaK8WpVfLVQ/VtFIDLHJSRJ+k0ymyEKMv6EAGt7H/5fRo6OWYm5ID4r5UVBOTDQ3GK4+kxScRGBi8hERpmQIX7f5vZhPotvR8yKo9X1i1F557+fN9kkD/jsQ4Kex/j1t+z035zhZnSJRkTBr3W85vnHXk/UlBmSowCS0yxEq3Gu3WiGNzqjPcxls6q5j84Q3E64B81PG6Ym06IsLv3UjfWyQTZshQ4M5eh99yFLwydj48W3271A9/IwjYxeT6sC20xgIbzFOS+PSiD6FtILTcjK81RPjIL88wXEiIMWt7nGRocNJfMZkKoJqkD8PGdMHdlEW2Hrx8UXxLkfE3GYH2nE38n2E5mt+c4jcX8DDn//+94aJ949x+RvIB2HH+JauHkMrQ8K6QGvzv9OoOSWHaDF+Kx42nEDTgHwxrBzCFRcI8nsUFU7VAYM+NOSHjvOjYL2t6PVu4ONb8HtrzHM4hNz4kuOjDk+5S1T6mMh8Y7bRlvpxisxPjxwYS/e4JkNxztDc+hXX2xXtevE47FKRklwH7PMbEm0jIg8KspWxUzaUEfsgvKQmN0GWjjqTc0Z+BMqj4ekfGdeXhpePV1fTq8+B9oM33SWt2Pm0u0pii5/3hHcw9T6L/qlvGu6B8XuOtzBwuMCbkd/Xj8m7Kkyw0yr0pugcm8dhrizg8wpjM1v7U3ZivTpvgeHRI1lav9/MEpJXUpeuX6Mi6GSe7PIsyGdSlFdPdh6D0XatpWyxZ3sTY4ajy/3tNbmP7mIPIsPQ8mVPtffe3+88vsZzZGygfp8D8kacdy5ItnPou9KKRFvZoHkkMRqXZTX/mYIMskF1RqIaurU0VDrUELs8y1BOKZDETHKour7ChnEd1smxxfzKLwOLAuN3beLBo07ty50M2aP5jzveenHsgGGCwoFk0eyD3NwLsTjmlWhuJvbt1CnKbTzW23PUVGi03wNGbcSu7PwyYzrpS8oDqPopD4bpbNCJr3OJwQILwl4PVdam69kM46l4JFG5r6SISnB73KBJ3hbGm0qo72sW/vV2fhsilBAqvpdwRxTRNGQg7iNhhdYvoQ3VWONQeO+jQIgCQ/XI6w61kBceodi0Ad9cIVASypx9HEHGHP7rHH+IkqIH3URAyOP72MZbXz3LXv+M76NtNZwdFyT82ENdXubgPiqGHvRYMD0a6kqLofkQ6vkio9H81NHm2GNgnPxmZLeDROaUDRunjURSTCeurrFh3BpjYz4JioPPpj0e2KsUaPv3vna8DRevccqPN3Jkt/3mk9FdSB4mJBWPrSnmul0fIcPS9Fb+LFNSleLxu2F7FAQufRUdGrc+SurmXWfGYldtaoyLmctQ2ig2Ruf6zj8G0TT4hk132b9i3iOD7HfYUWsq+MGR+H5kDwk73El7KhDJvtmEcbfpIax2atWSV3Lejc7qHEa8Rgu/0PGGggP1f8fqiOAljFxx6cgzr0t3793K5d0z7c6iKcbwzY4x+g7gMDasvDVukEXdoSPuwM6f5fD9JwWJHNMsw3hxSnD9oxDvFu9OtI1x6qNAY6zNYXgXW0YrxL0x2u8Ym6fSSJDqRYu5ApMN0eaGzacwsIyVNjGj0MdSpTv6xdCx8TycZuI0qmFPy3gTCoL1GvHXBoVvURWqbENj36oJ/1UG3jPCdrsNXKwFmS2ipHuEdUEgExvjLjeiMLHlSHBm2yjAqKK2CpGqH4yJpBEivJ1UiCDE+3nmfbk6ZLExJO671mzDEOsYnlFUn30Ogx9SciS+fcHecd+ERMd8jCfovrvtc32RH2rgaKPYqCcZO1NKyCm79oHG5WI6xuOJXpBydDTGGyIm9tUHmzKHYYOatcHV6haHSUd6+Rxh23Pr/vvbzgd301FuxM9ClGLjUTYIHxmU0DDiq8QXoSPJfglc2pV2EGg/HBMPA49bc2gcHTLJ6LtRlJJjp4OPJXMJHb1UBqEzTp705dJWaF99vIDVXt7CziFRYaz6clLIu88aFKeE8XQjiTYCfi9GN8LShmkt5FqHCi7Z6EoPQ285w8b5RsLUHeb9LDoie2IiVhtatGjX9Fc1T9yyNjb5DbtuRqN4kNP4lWNasawupTlChW2702RHAB6PveQ255P5tXEaYn0Q+X0QlGE+PaguA9M2N/BefZqXpBv03ktkPpOQ0rcLDfSRRk/0RxPtu4G9gywrVEuYzM8uylZyEdQDt35YHNpiGyD3qIVQhcs3FrR19W4HEVvaFb8tYqGMpDPK5z0ee5hoji7E9cZDgGiDJBpwyttYoxAxi3WjdVSSgSk6Qts57pgeTlEGAmk7vdh93+b9gv0EA3MVF3twjLU0sozTdWVla6gt9MF+OhYEUFurc8WEEI07IhZKW80bni7E5g4Klt8yWvmHyc6NpDGfwave3tcpYjxF3UG2txEUcO+s2FZodC/TV+mjLDaEP7eY57fj4xFqN4v5/mgp/dwdr7nX1Q1suewkjvr5bZ7Z0OqIGhZLPteFJ7v6hD4T30KBYI2pUM7LaVkxpXt5G7c7ac2M0f4bpXP3ZSlUDvl8XsPulWIbI6Y7BLtv/mnjv1tFLh4K+N3UJSQH/maqPz/Wjem9bP5JHeVh4CFxsnV0ZkecovivhroyIGoUD70p1mtDrUGarEx8TtKYG4id5iVXb5xyIpQx198qSaO+da63bkdDmQXzSdFf+ti82u8Qyl5lST82AzUPE9gjqa/7GPjZL8ro2DFxtr263pRCP1EX0TlvQQ+29rpt01bUtfpWP6N31bjlfSkoB8bpLyTlpUblhlBR0f1ZgLRiKD4gkwJ+BQ/vIaPZ4B6SoczA+ZRwixt/X9ehr7wsLq6O5qaHCduj8k7B20DNeoRwGg7Qtzk8+xng7GDgeo05ud7mKOz82+byqeXKr471Kkg17ndyv3xnZNNo4DpQhRNCxbnEiLPZt1wizclDQauR8Fz71pbRBuqe5OZ5ChHg2JkteymM0TGW19Ko3Yuxjx6kEXH70MdtjBkZv32d2GG1o/6krW15ucXoldV6APziCYf9Mg8HV/MBGC+VWep6o7gHBSgbuSpemYWBDavvw2yhtcgWqxE8jMTF45ZAF1irofimFHiiingUEO9AfL7uTshGvkfR0bciw8fCts1AjtB9f5vfb97G0rs87A9Z9/0tkbxcW2ytrjvTGwmC2IzJ7GZoV24+EdRFgqhho7OFULCNkYHEJujKIcYYPq4aGDczHhurqByIpG2DHc1nm8kzT9weqLHowI1ud27PtkWiwK7gCfpywzvb8OLA3Jvn8mejoVKlgGM+01ALbeT879/Mtj3nU0TySUdjvVa/feit8zoEfWOi0wcRV0G7iSchKv89CQ7uIdo1Paox6ttKd9zsMJZ2pG6CzdEUejUfTWiBAFzT5h4s/np3wunTYa4owmLy9E6mRyC5r8gVZHuzwNGCIezWx3LSQYV+tbH/nmM7u297cmYIoMuslxvWy4R8SrG7/VZRl47KcQqGiI9cBKox2bmdnI7qiDMe3CGaxx2OMDbnm5NvQdHglH0kj8lTXLvWPbFmJN0WlN+3najIYMGwl7jhxfEzOcKuHSXInuhM8GpncR+fhnDfnPlHEt3740teL9yJyzi7YH25Rnejcx/oDe3W3bjLC2DPhn5p4LaDsQzFk5y33ZisWMGxYFiDMCspxgmY+DjTgdl8ezbDTOOLcFV5G6uapY+1+9uWy5EL9vUGm0Zi58d8cEYt1D4yQsZO0Ivs3/f92jI+asK2j5pI3xFFv8/Qn7TtudOo0vsuFf28gIr3RozrKxUjBi8XGljADnve9oVvlRI3oGwdxFPMN/M9EKplhptpLFNy5EHgDF/haHVjKGhIDog/uIExJFIehyXKZI/gljyOJx0xnTqWUfetG/Vu0RBlTiV07GO1bh9FiPvv3rGWQwPq93jz+/jkzEkrvu/60dBOHU3HUCFXJvJWXhTtuaG9GPLLsbMusbrWNdhcM9ORFu4dFn8ut+USNZDXJcJLaxQCiWiEKqF69c4CUYbI4pzGpouI8dyNsszu4d3ndbprkmVb0zi2v/eDck0sgIzzviP5kUP2V7bRfMX9Q1PsG7qGb5t5b8V+FvhlucT+h1Y66kw2bKSIiwFXgfHroqgfO9KLQt1AFmvAtqIzK8pJoE08JDCs1Bs9R1GLYCEUO4/ymK9Le96i8vPwom1X9owPihgbAlP0CL3cVV/mUTw0yNAHbxxv22nMWNm4GTdSocdgG9Ir0b2iGzuzfrdxP2foTwxsl2in1GJYTxU5j5VdN3FjGD2cBuOS1Yvvn4OL0o2L8eFxULnguQ5CJzdPdtxzuRQgfzRkdi/aINw593IRtIu52IcbT3wPkLb7ZhPbZEoj+tpxKv+u+dFPuN+7OGWTNG1AKhqfo4zabfHjy+ZM41H721JCnTs6JU05odBgLAq48pbI4AaI42HjkKbHtbVHB3maxOOee0kW1Bxzyx7bHxTrNHpjLEZ8FTFDkO9D8o2DbuR9URIGDWr3m1/k0KPTkaB0N2R0VG1PgmMcfcfSnizlLia0V/H3x07UZSdZruLUZFHDTGOdBblnqv69S+G9Sq6B4KZxYmJ6Xx88MXNh6dxS7kuObEroOToUJH7WU3eIxng8cfflEneHkn1j4bKYb89WmcbqUNl1bdgLg7i9TYZoRLDv9sHW+Rjz0x3Hklj3AfMNiezjBj+LcMfHsW1vsVhoz72VRKc6YzZDaRfo0t247aOh3wR4CV7Y+fSVnmpe2XlHucR6MHIOXNDRTuZbA0medTY5lwgxwte5id8Z3gfdvUg2nvJuYD90dEWOO1z7q6XP/dj52PjO3XuPHPHPO3L7z9HuPKuLQeRDirm408n9YWrJ0YG8AP03bvESpJtGQuMHk7DEFl8/HKCJFOUpEgkLDS7bN/do9e3ZPkhzC9jncXiJC5XsTlXuHeJBHgcc3OifFBWdbUKv0Z+QUBs5PbmvL1f37LTjaBz0PP9iieWXPLj9FvGRaKExVj4J9EOGThNmEUzssXHNyU3dc4m5dC3IPaF4+6j65L2HDL6nU8R0T9bcdflsga1ZUc0D4tHANO4tlkO7mGVUcpvWXsz2pGcyCgr+6duHT43PRtoURBYe3Q+fh+QiQA8lrxPkT/VgY4hg3y0bbpOh/2qQfyjwUBwATTpB7cWTEhMiMz9JnSSzT9CSRwZlrrerr2VMfaSNHFOgrOb8E2DWWJvrwqzVtxn4a9rS/QOoZBA8adRZaQjCbWvA+v6g0UHeBCSj+3IUf2FvToWqh7h5a9ffe9QyYvdxAP3HROQsL+bVVeP62ufwOFw1iIWqsRuCvrGwnOY6d3NuOJfZsalP5tP4XKnoKzCjsiMFyc/Z6Lo4d8zQIqcxS7cC9kKMDSeSqlOhst/y2VHx4BRcItv2LjVGZzr7ZyHFZyax52YmB9MFWshj73beP/hHX12KL33i4fF4qxg6Yo53LWimN/G2d2kEPZS42LkCdz1MKWOiFo1Bdo3P9iO0yunknz4QuTqhaTA9vO19MNH3W65jgXP1ZOidkRRauLQWrCxGroL1aoM0zz50nvd15Futhf2zuzYj0jO7l8XBB28azS3m2lDxkLNIuI+FyYYqPLa3ry4Z/ZKQ+3uo+qxrqJucySJGvfGW7zEfh1jAMXM/u1bnVP1WtoySzgA/csfxbUbXgmY3rMvqdK3dCloW/zwN4UitX7xg2CxNyDU5PCTZRNaOPDFrNa4or31CcprRPESkMdYgYyus2r7KLTz5sC8wgkAaUsbNi+PrrpnDcAz5Znj4o6tocu4xMuu7HvzjjGw0OrsPaJfygPPpEfN5wTItXomxvZ/ShN5PoeKZuI6x4IIT6voMvS7o8wzlulvniLO3hNZ8dS0bJ8zNZi+X26poK3fAU6zCLdnZPXgazfu4LWusYhytoRxN+IjVvADbTPP2ET4S3R+2+TwAAAGUSURBVPE8OOJp3/caWuVtjVg+jJp/7gj27Y8hjcxiwtcZuNg6eIa6jhWKnL0oBeeHB5zPH3Ery662obxVhqKdxnYtWy9RbPBjIS5Mkt3DjN0YUxf0tPjqRi3Fvb97yGEX5AGwRyg/INCruuS72HQQ6CajfWQ2yKDwyGgZkY4MJX4a57ZlPTJwHm5Mx5jwqyaU/+17zPd7unj8FDM3bp5m9MJsVz1MuHqHGbwUzKcZhW2dKUIzYynJnm6RnykyUTmFPl4WLPWK9UIxIDUSJ4ds/rmfaUHnKBdXHzCsVEoA6MHMfg8Qe/ALxPYR2zzZtbHVdXEOg0fpnAZN2Yc31wPnoJvemcI/L8B1oJJAHh4a9qUfP8aobwycQ4UzKWpuXv4yRBDf+j5LooVTxelcMJ2zG4iA16kZCkkkD9aquG445yuWVbCs/OiIsWImZSwcIvdxrx6x2T8pouN6VdRa/COGg4+IznYhBj/oeLmnYpMVEMIRFfv9M/YOb/upggCKNkdspb9P+TJsxLM2431dQvWH+84A/j9P5qXwssHyhwAAAABJRU5ErkJggg==;imageBorder=#67AB9F;container=0;movable=1;resizable=1;rotatable=1;deletable=1;editable=1;locked=0;connectable=1;" vertex="1" parent="1">
          <mxGeometry x="261" y="240.00000000000006" width="18" height="18" as="geometry" />
        </mxCell>
        <mxCell id="0bz0VLMRa1vPZbrDY2g7-37" value="" style="shape=image;verticalLabelPosition=bottom;labelBackgroundColor=default;verticalAlign=top;imageAspect=0;image=data:image/png,iVBORw0KGgoAAAANSUhEUgAAAFgAAABZCAYAAAC6yeORAAAdj0lEQVR4nMVdyXYjuXK9AWRyUldVP/stvHpb+wu88pf5D/yZPj5e+tj9qkpkDkD4xAAkMklqakmV3SqJZI6BwEXEjYH07/gPBgACEEHQF09sAVjtQ3pk+zrrO0+dp5yj7MNyABGYWX8yATOyvp+z7ZXB6/3lEGY/G4GJMIWMCw8484iBBwyQc0X5V8+rx9Byv8TyzAGkP7Z1ROgQ0TOhJ8KBCQ/4gQf8N/75bxf867/9hn/6lxmHv/0BOv0ncvgvfA+PmDKhmyO6GHD49oDd6QTMB3TPyPPDtyKsItxW8EW4aN4TAfGzavCyrVyL6r+MzKSDCRd5JnkPSMhIOSMlxjzPSNOMkLLcuH0+6z/IGYjTDl3OCDm9t4B5JYzVJ2Qaozd986jlb3nAVGeH/M3+0DoSi7Cbo0Xrswop1HdZ91jPsKLJZcu+jx5JJuosQgtQwYnAZzBmQAU8TjPmKQFTRsxyXAdKIlvS3xQYlGedyZiS380nbPSM0i0PzipE/VGdekpfeXV8OwNE0wUN+MaF1wNq/xVYy34fy/lY4SsjY+aEJNqbk+5MPsyBBKgYMQOB5YdAOjr58wT80m2FzTfmRCv25d2KMzY/ykvy/Xl7PDbDxkiBdBa0G7tgk8AERGlnTPOkEGFKYCuX4HgUwWZGx4bj4KyQ8c4Cphfsc+dIogUGGqjIRbzEqo3NUteImf1/X8h8l8Coy3b2n+Voas5DV1qtsEG2ZCfRXMfgMSWklBUOkONKwHJdXS715jM4ze+/yBUMpCukLWO5vL9a4GjRLLUYSFZ+utLVVsODD0K5luxNMj31MaNdi7f3Ad93/VuxXTCYloWunHnmrFbNlIFxysgTgWYCUgRCUI0NjtdMjvuZwSl/nBXBV+Zb0cTFiCtT11ZvVFEWOyG3IFHxtTm+uRI7FpJqErn5lVeCLLYBFWuEyxm5Go9sNqMhgA4V9E5koR0zYxoJ88jgKQKTCbheV3A/dnZHMtCJP9JM26zem09bLEyNwLiFBSwDwHfOUSwJcruYYNOUVKvIxdzcDnMj9AUmDL+pzAOfUVwVxaCCME2MNBAwRmDugD6q1lK9mQgS6EgEnvgjF7mqKythbxcxe3hyzd4sQLTs1x7N1Dgbq09ZhayuAwfYf1tXyM/XXKLeIZezUf17ufuAzBHzRK69wTA4B1BuFEaOS2ITM9L4mWZa8aB4edytlcpuVr3Wjah2cRWa/RcaS/jWD1p8p2aRdHVkDtWDlKESLZ/npD85CQZDBSkClUUvuGnG+j4hDfhIiNiKieq/VwIs+EprDb/e8ZaV0kzz6vTm+kmjk+trk0EKr6CmdV54NT9kwMSznKYZ0yg+BGFfNFXOJTZw+S323gTMHyvg9bb1oLAxm+pzvWGrTsKig34SmaAJ9y5BdZ/7m80EdSOQEjBPwDSy/oZYErNZDlxOmE3oosnT+QOtiOe21njiDZnzlq3F9ZUEmXzh01mrnlpsdmjWvifseDP7BBZkkRMNZhHsLAtd0PVDETAwgpARcwbPHabHD7Ui7m8FCsrcNJNoAw8vPVfV4NYuYZuuN5i7NeaTmnTlDNSetDEXmXzRYxLnDHkWuAhgJUCi2v5lnRbLRYSfzkB6fG5+fPDGK7G0r1/vEa6RuExtUgqWGvxvz6y26x0rY8VRcHBNCCbcOSJPQR0OpE7NslD0PIgTwhgfE6bHd2fTnt+q9hJW3ttbAWJr0wa/hihXdJtW7WN3m1XTGpFWLq01iZuh5nIOYc3QI81ZhZsmIIlHN3WgvgOReHQRUdxrcakvjPH8i8ieloDh1yvr3a14aEUrW00mx9kq3Makw+rYsjWw4f8Qd6q1eQ7IY0AaA3LqwNzrZ3J8pGjWyczKEX+6gLfy3Jpti8n0csm3rFqhGcmnR6hsbwM8tPx62bWMZ86ZVGsVImRxS4LDEVDh9qrFCv6yaAs3nIxwunGj9y7zZkuqhnaWa5lLXPnXq3NzFcztz2/dD5tDQ6QUozgMkYt43KtrDN/sbjRV4W/P5nfOUedB5oCUgpLraYrgRGb3igajR4xGMAlmi/amlatM7zhXb26OaQ2pc++BbsHGrbu7tgwWe0JfcXjFPMDG8S7vkHuh9plQlixMmWiz8O7ZQYiK2SIYLMR8UuUJLV33sdtiqW4J8Nvz4lo094S8Ptuy2BXi9NpOeMm28HZc6U/jH1Q7k8TnSGFDHekQq5LmlNWdloGoGvzR+rtsxfQpUaH7A8t3xEP8dAiq8MJlKgSnHV//jIu7zMqTdYihgwQ0ZmHVkgjTcdgNQvHgckq2DpRBLqvtu2wCSnSb5Ea5WKMb1w/0enejRCsW6pJqMD64E4BWwGLX8hIAYLPNELiNc5ippzG9SuL3YI6OwYbHImBQBwq9ipNFc+fkkauArnCni8v4nEYtg3FtuzavnxMy37IfmldNJKJEl7fDcn2nVO3d0FA+xOGJwVvfQ7Eq6rXMB1bByqcSqU+qvUEjGkQ7RPmJO/07TRclepSPYDcqqrH+4Qvdsi2Xah66zv2boqsLTrwz30gnKtQl0D2IGph5+tkMVpbQU2H3MpdoS0BS0l0oS4MHEXqgHqHrNZIB7o38USIIzk0321Pa+54bYY2hZaGjRsvu3clz4f+yuC0uMjUmIt1kz1qqstLsjT+yeHZ2vGjxLB6d8A66uAVd0HRERPDyMzs3gTcK9rYIXjgD2C1Pug0SL9G42/eEVbiJebFvLU+C3Ppe7pUpWYB1S8nz4rQUwaqzIVqsrFrGPGWQRDTYvDkBbYXsbPIRs/iXkT1bG/a1BM89OFvjc/vqFgavo30LTb+488sZwhJlTp7hI4uZRDMElMLOFk5PrggSruvo1+em3dqeJX5eOBZl8V4zDBtngqnxGVtmghstX8ZFBD3njGGQ6EbCnArHIdZEdJsY2PWEtKNfTVfeM8gaVKT1vs+j9Gs2WvIw/Cq3zlveyQoRESlHTGPCNGbk2e050VU114JCQxeB2P8CNu2WBbz9Wx+zuJ6V1mz+Kwz9n9pKcpl7XxuPcMFz/1uzfMSSiJBA0DQD02SkDksCCruzETpVZIoM5X7eeotv1aBi/tzSzLwSo7++c5lXuSMbSLltCW+y1WghpAyLSbWX0WPOAcNIKlhOnRmH7BARjVFjM2XehsEtWr1o/yb5mRtsW87Ga44Y5ClRyyNvFzXmly+LlbBhrDm4Ys20UFRXNa5EfEmjYlFJ7jHNhEGye7ILt7jUXOzvghoNBn+GDdymlxYuYiump5xlro/ynk4ReXoqlnTVhpdbp8VG1WKhLefE+huVCCKQu21Kg7qbfQURH+HN3YQTuv70JUO8GqBnjrj69IndW+Fe53AW7pic9zBuWGN1yhVH84lDUGhIDaZfQcQtTV4bLa96JD+eVrvkMu1oIdwLZWMYHb3+YisAu0K6dd47V64uBGuWkx2l4YZyXvtniXwslrAIsvPFUIXLURe7WYn3qJHlIDAhrH60REAJYcyUNUVAXr4Ig98VPJrRuk5MLc4y14e9XpDKFH5+uG/uUQtnbgNRMdtC85q5prMrF6GlCpomJYorgk3L4uZQP3PLSX/2RvmGqdX4dDdG9Dqr/WUbNVRm4BaZqPEgNmelTVJ2yamu7jJUe8n5YbMeSBe1HCyVSsi2+f0F/Bxj1fLrTWGLP2uulA/V5+dVeL8c+fwdsP+zHSxe7bUJEnniYa5wxJ5lv6RHlYWOlU7qzUUW7FVmx/crkY1WwIZtT2vIyxahgNvB6lCnpt70GpY98bm8vhEuemLxbTmyugguforjeTHN2oxKXoMNW5lCWSPKfapGMtzRCOpoWBY8eSQ5LhisISPWcq7VIleeLz9BuwRnuZ7DQcMsL6eqbFQjDebKaq0DnKEhaW6fuwi6wGKgkvPgJLt/Tk7qk+cKE2Wb2pSrFVJidquB4azXqAupCFIWNVncVAmDCnrMhFEDFyLcHajbKVQohCTz8gSSVovcYug/vT21wNRz3LBGrFSAtbiPN9Nzi6/l7/ZKKy1uwkCF0MmO3zmsd2vPodOfskImmjRANJqvd0KWd58kRASrlasmmhI+jElygwWDZZFTAfeqWMIXiystltsiYL72sd66rSfeEl5q8W8bIL8qTqSnyXX15GRKNrOfGve6JHMT33imakPnu09cOGJuaMwSxiyMWuJyvPEQAhVSulsiH9wKmK6JvOuLvnAVv/bNypR1adzxGqnVXC6lWU/ci0MRNTOGfJpzsX3LXVMpL+BaXENqzcT1PZfyt0L780ILcHXgvSgxJwuKRvLs66DIKPciNGYfXklXvs5Eap3eW0WtvhffIXTuXmzBf5ODubrr+eIWRJMwpTVsVBwK9gyc2xcqiSbljNyQmgYTVtYlSSg6WHLSLpigBf6ysWx4rZn2nI6/ZgDWaP+6eMZin4bK36wp9dBAkT13rBP5ZTRVib+2pmERtP3HWj9ns8jDx8EGQCPPfMdV/szticD+7YduBiZvBRWiLj+SyhRdzzQrIticj9qmIKgjwDmYlSB2a6Z65up23JlSyYLFXpxuIf1UUJrK4m4Czk5GvErAvMHJVx37onSpl2wuDEIFTNVZsgRpoRTL1LeQkS02Wu5KWTPQIxV7PDT5Aw4obcnc6qmNQ5GFbfLaPg5mzhl1mi1NIJMFPf2wV2vw8ybcaz99ue2ymG4l57fUwnmFe+UvQm1UAK8flrzd4D5YXfiyOREtrpejCxtS9ZvI0ReuyYyJHSxKUre6owZPBl7htRp8J1hfa+BeSsQv++VGbK/RavGgVGhsiBtL9k6NBIdqrRTPsufOp3cRW6pusQ1I3GSZUhU6HNJS7WchlsKMXE01d/k0jB/Nck7vhMHb6f88ibhiDF5+nWphc6PFpTWMeV2LWezrN0mLgazmlrm6nS9RrF6d5KMlN8taexq3KqFKpk9xo7kZrMZo0oJ0gYmPqVV+L3dlfcYqXlo43GKjmoCbfDK9g4hWf8u0l8RsW+FjNbyYk09zbpY6NPZv6Qjg3LBXgOYa8XDV1gAoeasDaNlX95ZFa7t/K85aGL3dp1a3wzPi2BIxG23Om8GpAqOlviI4syUJfVpRL1nsCP5TrIsSCQ6OyrFMajWtejJyKWm7mEnxUjkIh5XSJaVNcly4GsvumR0qBCZm9MZ3ZCuM4dHy0wSnu/ZhPnNrSaPnBrLYo+RusLjIJb2qh1kFka0eM3g+WGJu7GHzwJLapWzNNWghHWUgUM01bNjAdUorY2HaxKJQa8JTVSU5O0sl6JAxnoXOyNoB5cXbfbe10dR7+zQ4/TTxWP7MNb5PNX3P2xQQ1Yr6DmbfdpXyKSFIa+mlOiwQIPhLstDBBZM0tCN1bcxroSqWU5PD5vUeXLpPlUZNgsGZvTuW5QmHmTBdMoazPULV4PwMVrx4ILb0ZHnbi6+pVFc+lT9cr7nQRmWR6YIJOIo9600wuhARpfKSU73RXjXW+FuzUhM6jpA06cljE7oYMWpOMZxpWOz9Qo0a9IQKcxW9lRm0alETsIQypkcTcCyeHL8Bh9+y5Sp/uyFyAqbE4KgKtdgBG9qI2YOkXG9e4KGrSxqV+IM5xVxozNJ+xnC6I6sckgZ0s6C3YtDsdm72hOsSOKCFj6jEvVVt6F+pSZ2S9ySl6gIMA3CUxJMaWXgmL2LFdF1p2rXmXelnNYFK7vk6g70l8et1hJyRxUj1z5ZAa7Rhj9NTQM9s3fpKpyfNT7ALTtk8Pm5sWB0Y6ernaVCdAgzrFaxYHG7GLQJuQz8l9zg605bZBquuEom0En8cgUMf0L0m4eQedq6siLuzYdFPsxudy63vtAZS8iwZNK3mTFGEYhQ9FAjYCWRwwJ4NW0vwiJzUJw/9yNsze4suHZgSmYhKV86KyN5wYwmR1qsrPGikw6IUhTjyQj8rUdCb7RCkCmkELhfg4a2pU/cE/PwcIO8E1Vq2xYSDg0Lb3CvXdV076vkx2r2BzfjqyfqU9bmxgzl7QYt18CvchOCvRnuzHCfCFFMtOMB0ahkX94WpxAm9fIumSnMGp90pe7pUiczqotqB54BhyJi7d3I0XjIHuOWEa96uTcmlFQw79WgCF3e4QITZqX4cLdnrew44UsROhCwaygmDtOCS0KRjvAQog19EWyXqgGbvp2H42bH1qRRzTwQfufStzHUmLVq9eHJ6Lxq2731WmhcnWjzQJyZgF2TlwrU6NgagviAPYRR2jCq3W44n7z2SvRgmYBc7HDlgB8YO1sdBC1MoqfkkhS1ZLRfLtullv1LUwgGTXid5PC9WzrhmRvgg6V252ZgbwkjoUBLrQcP30ZoiZaMsh8svashRikNytSjWC2hhppYFz6MWMvUp6STWFoaSmhQS+pSxy9lZBuCo1CQrrchlVrBTjO4JWmZlwMwRE2nbOeOLFZlLVJnVHFwNeNv3gHip8pQ6ubjzvDXSYsUh/wIBFwEGKojKNSqBJkBZ4hHrYFBNS1EtFhztMWMvQuVChXvwn7OybWoDO1eh1KZaIdnjyUb0sLrMsdJAc7FwfFbFpk4puJuuzyHNN2JwDRaI2NmdycyYEobpsyIabewF1oYwuRbXHptcn8mJmeAMg+lxqcIUmzdoV9NZl6VTf8Tve+A4z1YjnGc85kknfQg7UO4UCoyXWLy94C7zqAR6wg62Ty4ut88GoIUu20JBZXF6xG2nYpWr8aiUpYz3PH6GgKlYlUWATkjnxRJWzZJVnUvctroKLozoGWGGh3LTD7uIb8c9/vLbHn/tgYNg7DRjnAPiRGrg64OnTsPo4yAlrrNqmyTsdd70c+RZPUBSU41131g7X3Lt6xOYF+vBn0Q1WlIHoi9yWvnpucJsgc8PF3Axdbm+vuYkimURiyEmWFvqjH1p0xQlNhwW4Xx96PDXf9jj92PAl0NWqJiHAd0s3UYyei2ZtqYZotXf/37RNi8icNABnRR1pxEDRnFJrD+lNgGFV2HkplH0muNrnSIhnlhgou+A3KlWm6LY7Px4Da7OxK1eDI3nVlKhUCCDmsaIqbgQBhFCEPYJDw+M07eM3SEh5At4uCCPA7ppQNb+kdIG/ICYGON80RAPzVF9OClkG/OALo/YC5xQ0M8HvUauhFG1IGgh5ItdIzNBIUJSV6WUtuvMzmbrmE2fE1VuI1sFARuetfmkLGKoqfmFHYvK3ZJPUbnp0yHi6+87fPvHDqf92cIz0vZbksLGC3aTJUmT9NeZRQiE3S5imDu7rvQ4e2TwJeE8M36mjLPUt+WgzfEHNl/PSCpyD664IbEu1FGTroM2CRVxWoK2u9CfIeCCoe1W9LIyErxEKkqxSeQlg8FySzq168Qu2FGHhx3j+IXx5S8d+uOEzCMoX5CmM47nSUnvKY3Io3Wki3vG/hS0sRxL6auQRMeM+Hfgj3NGHmdcpohBuYqovPEOgtG80KTsGe+lFY1zJaq9u94FbMnXJeX2F+VFcNXO0NQrEy1aXGKzSwjKqE61LQKw7wNOR0b3LQG/yeI1gNKA3XhB+DlpV6g+icBHJTEkN296JHRjj5z34DQhx4wUBHdHnNOM3SytuWRwe18DokIHSm9g0JoT85zgkjbldpz1DMInCnjLxNHm/bLIZW4E3+CzPUdpI5tUk/uOcThMoBOQvw7gbgCmM7rpAtrNiGNAJ407tVt1j77vkHYB88W8PT1Hn9FHWwjFZn3MjL18NYOaap0NJodK/5Ab7DXWV1J0yWxi2SFLz55onEf+TA3eBsPr34zaCouwtMGKKOVVlttLdXGxxPzQM7pThngZ4cTgAxAmaNdp7ACM1t4lzAwaI/oDAwdCvgQlacQt3n9nHLqozTTGsMP4vwnf50lNPOHYgpKZcKYtqyWj+OumotEYpXzLVmnNcPfyAawSsJuSuteS7w1P9ipB19fZsmRazS6UCvyhtBW9PsekydCpm8D7DBwm4DiAfxth7fhE6AwM9k0BJDlM4wxcdsCpR5D3Z2ujupMC+S7j228nXA5HPPKIw48L+mlSXmNULYbDmImaSh6GajAjaNKfM+/JZhfVJMEmolG21zbCardqYt3YFt75Omqsf+c2ilH2yRUoLEREarMmTBj4Jy7osT/1wLcL8OUC8KCRCRpEqNlLXKELXT5n0GUCDT14HJAuCfSlR/fbCflnxiHu8PAjYd9/x07b0h71DszpkHhe8O5+o0OIBaRkfaOQbWZly/rTIsQInLcQsc5jeZ+tYFduMmaYr3EYK3x2lBNaKoTqXncWAwbojBE/cKEOX2SK7r8jH36CwgDmEeEwg2aLIVu3voh8mBEuAIZOxyENE8LUIRwT4n7CMZ/w8Afjy2nA8fuMH9JgwylOa1HTOSvXVU+vmL/KbVZ6yBIQSpXRTQx+rQ7/2QG5G4n2aC75t6uEkvPFIyZ+xMi9kishDIidOf6sRMfkwTJJAgnoxuTeloQ+RumUgU4w+TyC4oAYj2De4ef/Mb596XH6n0lt6hLgtNqP6PawOe7CXfSREKOTKs7B1gRXcgG3wnkXQfGN97AuB6DVMrfdO7uXZIHH7IIlJWKycwhCaJ+RRrEIDohhBAkmx0dQPIP6ARAKknfKD4Ro/DFK8zhpNTC7gyAFLLsJuwwcvzGOXxnHI4OmAR0uIJwWVkQCANJCkY2EirHDLuytvUn0TE2t8gzKc1xZEW9H3+fPQS/YpxhtQpiwBze5tUGLkS+u6DhgvEgLwxF9eATiT1D/AyD5e1KTglJvD08lqNvZSiFfOjRZDE1pRhHmPOHwFdj/ltEdMujvIuDZGuazV2ao9to3v6jbHoN7cuRlBOY2k5A/XkTz+Xww3dff1X6rrw/xnAQNpwt3O2MQvvVCGMcRh3wG4zsQf6gGq4BJpn+vBIxhpD+uaJolRyh3gG4PibMTzth/izh+A/rjrALtncEr9yADrN8zV4jJ2CFIaxNZ5DwCEGKnAi4x3c9rkr/pMXFLxAslVBhb68a3sBXlOwYypukiiqecq/R1IR7BNCB3P4HwCAry3s7SmWh229cFHIN2m5IViroDMIq3ckL/5YCHb4TjyYj8TiJ7GkVxw5HhmUSmxV2M6PpgA6irMIH6qFq8EvBrG2w8td2zQpb0ixLhvL7e1hmp2uu2n0Z5PdyjnahHBqTN92SlmLa8CP141r+1oIos3UmcgRCjR4AjWBZF6bFDX6EG1e6McIg4noCDhNcwqbPBngUEd9O9ka26IAIRFKzKqDQ8IWnCEc1t/jAN3n4tJWq4ct0b4taQqrdU2oGXPWpnknL2aF+3cLYvAxFGjCb7ejFtzkleJyEYmttBt1w0xWDtHCf3M4B2I7Cf9Hd/BHqpKQzi0ZV07WwVyhK99nSBXYjY953mGEeFB/2+M0Rp5dV1NcDQCPjeI79lu1cf1uTtMF8NgiX1tfez2MX1e11EVUIvjCTOfzBmoRxHVnOM2MJMUp2ZSzJsLbn1pHe1qnItOCcB427WODsdeuwfOuxOjC7KV0ZO6ARKeESvDFtQhk0Wv/2OcDh2YDm2m0Eq4NnLlq2114fQlc9BDTUc2ZWWr9oL5GaJawL2ylr1uJwzfv4xY3gUT61HSDtQ2nsXPh8Wv5XyfUlUp1bpuMpq3gEjsJsQDhN2DxG7B9a+Z1HqYdWaFW3ulCbtNRt4xr43CjR08iWeSc1CdTaEZw6lhlq/wO9extmfEHJNQ1+2Fuerx7i95FVmZl6qiEos2XMTpDHR+adkMRLmR6AbxHXqlevVoKMzXF5yrmjKxs0YXrI5JSRpADQBUWCiRzh0OD4w9nsGPY4gHhAxWu9g7jXaIU7GYR/RqXBn1VwzSyaFE8mVWKLQW3brPSR8sy0NbV4vxX72ww1MrZNNSshGA4rqgKjBhOFi37Yi31mRzuwcYY+Qd56h5UF+yUtLqDkR9bd+596MHEYgyBcPDQj7CaeHjMPDjBiEbzhjhwG9cBA0q4l27Ht8/XbC/hCQBL+NxrOZIBxFnDUvwwVcogbvp8Fv2woT4YLWG17yIMxLFPUTf1jiCtJ9j3E5zxgH+QI9SR0VJfLvkasNmJdyXU1/dVJJr6ITTb4E9QKmC9BPiPukGPz19x4PJyHgZ012iTzJt2hgD8ZpF/Dl6xH7h14cQbtXqRmQRG9NtbLEwwDg/wFijjTPwiBaHAAAAABJRU5ErkJggg==;imageBorder=#67AB9F;container=0;movable=1;resizable=1;rotatable=1;deletable=1;editable=1;locked=0;connectable=1;" vertex="1" parent="1">
          <mxGeometry x="261" y="316" width="18" height="18" as="geometry" />
        </mxCell>
        <mxCell id="0bz0VLMRa1vPZbrDY2g7-38" value="" style="shape=image;verticalLabelPosition=bottom;labelBackgroundColor=default;verticalAlign=top;aspect=fixed;imageAspect=0;image=data:image/png,iVBORw0KGgoAAAANSUhEUgAAAFkAAABZCAYAAABVC4ivAAAeDUlEQVR4nN19i3rbyM5kobtJ6mLP7NPuI+zz/mcSyxLZDexXQFMXJ46lXOZPDjMaybJMSSCILhQKoPxf+X+GOzcxIN374m9sCsDkJ+zoGxs/a+Y93wsCkXhDM/PHvEf/HV+ZIf2WMfj/E//KHw8yYTDu64SMGQMURSqKid8jNSTuTrk3Q0mKkvgZGswqysMfvt/ffWR+gy11o6+fmwZO62M3sfUDIn6f/BavccPzgIlgSBlJE7ItKNYwioQxM5CswtIMoKFkwyACsRo/r0d4Pcr3GPhXbF977+vP9j2bdT99+8nl6j6JHwL322RyMazEcwOAkUY2RVF1j6ZnlmTYJcM4JAhfhAq1GUm0Gxn+WMTu92Sx9dT78e3tft47uNfPP2zw/ibS/+HqPc0f0YjJfyP98frPnzPxkFGQMPKeXistjA5gKobnIWOcMmRcIEIjMyzxtTSyIiVByXFAzpu+Y0HGz+uv+J6hHzHDevryj+46cDQ4Y+kD7yPdhOsb+iNbP2n3WfOIDUs5/NnWsFEwQFD8ccMgBZleKYpNMWzGhu0ITJMhbxZIqr7YmBiyVGRpHoZKMZQbb3n3C94Xi+81wM1r7KsP33+PN15/vYjdert4sDA+Z77Udh+leTNMMswYeRd/JSwhWXaj0riTFIwwDNYwcGGTBuGiNyzYbCq2Y8U0njBNQN6ckNPJjWrSAMyAND8gZaBnP2AU+wAV0Ase8bRHNkP35jcH8/1QE0EgPrD6H9nZuzNg+SqkcOEyj8UMDRMEGzGMvmgtmAbDNBYMGdhNgv3UMA4ztsMR06hImxkjD0RWmFQ0OwFYPEyUMd8Xk2+M/MELv8fQ1974c7Z1X6l7dP+/rF7SvZzeLSkMLLHgEZaNAgxW3XCDLNgOhu0+Yb8t2E/AOBxRcsWmVIzTjDzMGHPqmFG5BALWkJIiDfqlkb/2VeUOL3772kdf96iJDRfM/vXPbGdjrv4bS55BAzn7bxMxL1IsaFL9vvQwsaXBx4aJ4WES7KaEzbZhmgjTFgz5gFKOGMaGNBRCEKgsyHZCshmWFangPk/WBw3wcLj4qV6M8yllHovDnOoQzc7noyTxBKLY6sHVUcMmC3aJBl7wlDM2T4bxacZ+K9hsFBNDw/QZOX9CSp8g6QBMfoRgyWCpQWyGyOI7t1FujfwnJRgfbeaGvT7g5j8Tljl+RQ3j+jIIz+ImMexzxt8TY/OCXanY7hWb54r9XjBuKsbxFbn8Byr/QcovSOkFDp55CmRBYnKCBUiLP29Tejzj+2M263hYLovjhRKIMJERaGIDei+wkYpNangaxOPxNnPBI4qYsd0oxs2MMr1ChgNUPgGJhj7CcoMVgxAUJ3F0oTQyf3zUyH+Up0uEoXMkkuTGdsMTeXDldwfM7oQT8a8YNrlhNwLbQX1hG6YjhmnGuGko0wkyvQDlf5DyPzD5DOQZSDPE405BkBgVMjRoAWxbHggXv5jQ+TWbnZGOXC21vhxag0jGYDSCuqG3A7DfKXZ7w35csBka0vOM/Ncrht0CTEcg/wdI/wD5AJETLL36YsfThBmeI8OkkK0gbTJsc4Uu7kUPf5KBb7c1eQ7ih4ROsdw9ufrNs7jtjHFbUaYFAzHwc0V6PgETT/9XWH4F8gmSF5jMUMyotviCl8SQcoYMgjQNkH0Cpge4iz9xSx3Imaw0UZA+hGjZaNjBPXgDxXZonsVtphllPKLsGCoU2L9C9q8wLm6Mv+kFko9uaDeyzjBUNN57njMgjRnYFGBrDPT/vUZeOZngK+zK0FyImhuatwmK3SB42mfs98BuZ9jsGoanA/JOgedXYH8ASnUjAy9A+gzLJ6cxVRX8Z0tFJQ9SEspUIBuAq6nu0tdj8tuU9VsZ3I/Skd+7vZf0rAudSSRgfCXZseRuFhyEx2DnKRp2ecHzRvDMWPxXxWY/ozy9YHg+wv5qwPMRGA6QMgOF3vsafIeoE2o0obYKVYM2Jikn2FCgoyFNjMvjx55sV/d/RMgW6Qsbrha61G9Y6yQo0rM8YuGtYbefsd+fsH16xfD3CfJ8AJ4W2O4ITJ88XZZcnW0jrRlnSIrbkpyDqgtQmU7rjCENQGmQ6Z1wcW1Yu/IXi+9w+T6/5Up5yyqG/6rzvE5mdipz4JpE/mFcsN0qtvsZm/0Jw/4V6fkV9tcB2C/Q3QE2/RMcRzJf8LhHvk3SwdNhySmSzAKoAJXxWTOGNCKPDy18b4NJcKfym/m3vHnMcMZQkXv6HKWlKB3tx4yn7RH7J8HT3wO2fwnyswJPFbZfYNsTsJmBsUbs4U5Y0+Np4hyQQjR5ElJyhh4bmgKago0jKyfjndzF+UP/Rvb88pCvv0hf/Hb16KAyyRcvHpf3m4K/njOengWbp9YNTOMuSIRs4wwMM3RQTzZkLQCawFRgRSCNIWOA5MmzSPUFkIRP8MlS7kAX3/JUeVsy+d/YRM6mpMeapP7ZOudmKw9nQcanhFFZXT5iM4yBKP5WDH9X4P8swP7kkA3M7IYjUp4hvDFlzhJpMzMOi1gPNzJrTCMyw8nnF8wngy4Noy5EcI94slxKRr/ZJp039n+WztjDoVWHakmiKj2yIIoFg7xiMxk2TxnjTiH7A+zpBbp7gWw+QwbeTkBukLL0cJH7ySKRmiOYtygOjEAjKZRgrUHF0HSB+llzt4l/103Ot8sKETU8LkLqRg0jk+oUU4/Jm8L0WbHdAYVJw7bBdg02Vcg4w0rrBtbwYN+lOjRUSRGL/SD2MKoJLFHnqSCroWVCvIqq7xj5bFCvj9m5IvK7Glo7oyZnGcBFCpCc3DQktf5TRQKZNcGW5M3zDHlqwLZCWOWYTsCwRLJBTsJrdtoRBQlSOOchKXv8j3XKCQukccIEQyOGdhxtaPP8pZHfrs6/P/P2tcPf8bGhG5kQroXih4lIYlaXsdkmpD3j8AxsTpDh6HFY8xGKVz8YBMCm6m+hjc+YF2ELyaU8QEgga8dvZUAmm5cammkcmvqAgujP446uZS3VQyozPDcCi6FPCcOmApsjsKWRD8B4gA0nNLyi1qOT+6zT0ciklYgaaOTmOozkpDxr2nClEJB8YczI4xYbFZzSDLUPYvK51P7rLfLTt/WTex2PWgivRpuX95+fC/7+27B9akhPJ2BHNPEZGF9gwwFVX1DryYUoWSNFpy0WNTe0WkOTSHNGDdjIRGXMIzAMSBS9NEOtC7S9MfJ/E9N5HeayY2PG7QVjUTzvM57/EkzPFfCE4wgbDx1NkFlboKzXtS74CSujteBGtItYFjSYnHyRHanlol6L6IL4OWcPVYzL3174Pvjwv+N2XZuWi8oCg5/wJ+Si2G4nbPaA7CtsOsGmSDpQZggLobHGoYpTFp0yTR6faWCtISEg8XTikWAAyRLClpyDuBdBVkFLV0aWK+nURZAnfbXu1Er/xdcVO//+dnn/Nem4GPciYzGHbMmVQicUlpWeBwzPFgvenqhicURBLxY0z+xoqMZ1r4mjrCR9b420pnn1m7iwErVQKjsuUJdnjf4810HpGo8Pw8V1xifWdXG/QX793me4yVBZqeilJuKCUaihUIyOKJoveLatAAWDA3USC8xobHdfP2ubip/yJJZIEtHottC4wauSQ04kgbShtQVZa3wGCb2B6+Ee/nL2e5SpXGOc0hXnfUHzfgbKqn2L5IPIYhwF0zZh3CvyUwV2DWmjwFRhXhBdXLS96jJC4Cjuva1/aakMAwmnuUFbLwZkBHlPrlMrIpFWT14Ip2+E8+8S8ytmloCEP2uTm9D02PZW2rWGiDC2IlvqAu7mgj8uU4Ruu2dgeKrIexr5BGN2R3ycjhAcvaREu5FVcw2FOK3mGV7u8gri7URDLCkyPQ1yzo3u2HpxmZbH5uErWrh/20l//kJ6m06JRFuB4+NNdk3btAOke7CMrDifYHqEyOy4uDg3kVAGQV0aMYSn5DymXcHrB7NJiBRLr8JYb2k46zwoxy0P6i7Efi+6873Nzn5NvkJd0ZOkYrsbsHsSjPvOVWyOkPHoUiuzA5TenFskGjIgzSGFpdyrVXNjuw3WG4m5QnwsLvwWWw0cDSt5zI7qHjPyT47J9ub++7fUpYRd0N3ZBm+Skd5wI+p8xbQrLtomEaTj7AogSa8AGDJYXgrOmHclS6g9u3OVM1KgYTv+HgoKM78SynoXh6Ug8r2n4VEjG26h3rde86u2s8L0jIL15qfrLSEyPX7xRDF3AYYNIBODKxWXzet2JIK0Q7fozOnVFImGnTFFLPBeEUQcFio2Jbua00goDcyok/+ts62EcKxxlQfRxT2E0T0GvpHMXu303oNzzUrg3IKAs/+KdG5Z1I3MasimJGx3CdNTBqbmuDh44kAUyiRk7WSSVa/hTukHx/s/pKCkEviXRufjqWAZM3RbYTwaIyAUOFPlScHhozH5XkN862DchIh7+0W+9V5XO5ArP7+ok9V777aFC58hM/EgnTkeo8TPNLp1YQq1azkkBBoFQm9HyG3lJ2jk8Vwk8PrpWNAGA2uqMgan7EZmjXVgiepOpT0eFHd/9Nr3JGGPngVf+1u/lxXO8exXbNiG4PpiLkYtJFdj92I5QRk2rGdpvUTYJAzOmDsodXN05wEpjU5rOoT06nWgEGP8LdphG/kLOLLgaXC3ke/1uHvCyRcqtTvbGW5eYb1Lzyse1yZOXgVxL1YS9LOTQvvnjGkPJKqCaOASnizZnIR3XcWQwwG84t9AmbwQIZSMLAWWJiSZetpr3qNHd87e6Jeh2dZOy8hImYmMDxj5ke17Q8Bjf3epSF8l/p7lZa/XK4oFXzEMDbunjGFrkG07V6Gdr/B4SwOqe6KT9C1YNteujFH14PIlFKzQo4mwWnRNWVGHaanI+aAHTVeibS0/EC5+5fZ9TTkXHBNF8xT8Qi81wTtBm5ebppEKoYzCgulmATZBCNlQnXiXTL1yCSNXQaNHluyenTT38JNiFczRUWVVPbujVMByRxPkOXiAGV4srcf9v0Bw6B06XS7lPEXAtuSowpxHHtjcuBdkkkHTAqXOmPTm2Fx84gqgFCJuJh8sttL/EmNvla6vo7Ukiqr+OAcm9pDRPD47ukNFrYZoGZl6V+tvtpms9bn70fbbVwrQ23NDJjsMgrKlRrZ6Ku2hYlogowUiOLNu4v1/ycLAyoZKkvc1pAUp41y5JjwUizPGDdylWmTs5jo7l5GUEPKPl87etgKvLHKSaNWN8j+bzAvyJMAWMGJk1oyGfh/tT15dNgbjnFw355XtllypGSVR7ZXr2tfXBiOXLD0Z8vpeEPpNFcK/c82W/ZTxFT+8Pc5PX1rFVpSxZny+RFncksdkEupAngxCUffYYCP7OdSzPu9QYv9dDsJnhWXumR3SOVoJ9ieoUF0cWQTcC7mAdwfyQPlrFK011KX6gfhtPPn7u1LjFF+HhTAWl65Bzs6+GQb2P08K6V7MZEFpXC56w4XUoUGcf9Aee2nwEpSmnSk4PUu/PH5LdXGheryxc5WGUoBlmd2r//iFz8+CleyG9XKTxXwKKEYSNOz98BBRA7ZxsRv6sk9iR6PsL6k7pnT+odfqnMC3dWyNdqqzeRVFOjnvTnJFUzZWTZaKtrQ/1cjS0/Jo4U0anXmpl/2jVzpG2Axs090lpE1zRKEsnJYTUoreZ8ZWJ9hJEfnp3vowkDC0w8MU3a2kTFchIywaLr360dX8MRHm0p2gi0JPf6yRYzt3/Z/TyN56Q1EKV/UCTBvDuJHIygZq26qzb5Y5zqYGdHPca96WYM2825qVFbGLV7cWXdn8WTVKIeLhoi96FCOqV14hayuFGVT/YCPfctu3euSArIphZKNNwmZvEBdzHwO+jTPE9W41BIU0hjQXJ3LGkHWk4eMcWEfs2V/LwVara/dbEPxs9SUiIbLQ5gdK1sag/rF+PyM/SEiHd52DaVdIRNgYh4otG9C3Go2OrOWNvfzP+Fy6DDZH4dTXNo+1hH+58w+BPFwWkPsH63iYP+dhCIJe+xlhnvD51/C+berm3lWsf2CHn72dkcWDaC4cWRETg3Aer0BiaCgV0645fHPmzRORGu1iQyfVcxRCu/tDus7Cd+btTeKMmnOfObxaSeprRnZ9hZMfvaU4Ms8QG4aKKF9zF/c40FfnSrwZT3MXDHuj3bipOr+T6V3PdbvenKtgDO4V6nVmkM9vKw1lKwHdSAxtFVaqL2Ru3CHIH3ryGnasBwT1A9d5z66hMPf4hMyU2nKQ+71AwP+aI3Pps5zE5bWULRSVq/j2DUNff7VrWUCIzi9P3DMb40fEMevfXgZFreFBI9NzhNHOkqxhShB6sFdDaoxIcCN3LsL5+Is8ccW54Yv9fSS4YW/nZfy1MWKuY7kW/SPs45OLijYky0EqFdzpxeeaw5sX2pvH93uz3AwTuZaDfcvAbwdTObTq/HG0j2kYnBXqbMjjAGE8LiFg8alXax1O0KdiaPSaSLr6DF1ILsE3pxLlfcl9buKqDdDOP5N5S5HEuIezQtINfQkX0tHMBwZ++/uvGfRbRr4x1BfilG9v1/u1noBIb3PzwudZvbf4Jy4MF2wxGOCIwbO10pOQPjLBD497YSx+sQB2j+7FQ2rdqKEg82Y+0rB/WnpxiwPiIyQpy1o9dkzIjPnpzZSA97ZHFrq7U+Nrg33neBy7qlKnq/GPQGRiidncUL2yTLWms22UtXZm1Ksf/K9Rx1adGHKxoEVqHY6lgXldtm8Rv1eKWe3cAevtEuzZSzG+z8YhjCxXRv6RMv5FLC7naSnvbfwC9hPwycofXGKd9UlDsfxkZnQ0MOtvKQZ/IJ3OxvYsjunvsmBZKrRqNFTm5GeFG9wiFIR+tnbSvhNIaQ3A3dC+lna9Be3PklUJofgNTtYfNLZTgh/soIObH3iXy7Z6sEeCrr9gJYQjHCnKzi6HtZBhuaCwdgFL8z9i8jAvM5alObaNbgTxTDuKh+oKpNBitMjyEgLSpd7Lly6ZB6vaTGY85ucc4+egD0C4d8r3N6f6j+oFvmfrumSXyK6dTaxO78RH2jB11nQ6t4tZNxZbEtgCdpqrS7AYNnJJlyqLXY2rXSGfT8vSs0d7uOqkkTN6qdPObmSf7YumbxpzHo3L3xNLf5oX91N09ebsqKK6oYds2G17i0GavexPtSZJd+kUJq0RsVi9TSGwZy+Gpj5v2RfpFF7cYZmjEhq6V0LIdZzpbVzKU56O8/yqejurE98y9D2obG0D/iAmf+3333XAeiIQ1OZq6AU5L95tWgY2kZ88Flc7xqBSZmjONXQe+Uaw0VXOacW4XAAj63NMXQKWWQ8REbbtnBmuaqaO3TzTdyM//M0++uI/QxZ0z/uInD3o0hsSI3WngeSQeVot7sHEx11BX/pCJdHoeG6VdrWsOlGUU5zqq6EdQ3tFOkpV0hGK1/dWhNMVR2H5Lq7xGRjfMQn8d9xo8P79fV7x4J1eobTMZNokEhNPp2U9MuLkTU7Z57oFHpazOpQMc177y9ajkfpCtxq088rNq+MSY4ItcDY/k3p15E4jf0QiXa9laxnoke3eUHGF1hw9pf5dowpyZeRBMJTF0+q0juX1qYYhXlkzKx++l7LX+1Kjtq14X4im/j5rRakHfvd2CcN64sZi6VxRZ/XYzdA99N4SkJfm744PNLB/9OX/je2tzk77cI8VnzMNoCB7Khx5TsV883rf+bT2xrzcHTCU8572lsFre5khZBWlINrJfCnsqEOumuTNC6Uz6rygLuaTWnLPFFnEtVoxv1YsB70fXfxOm3Q+N9i85Keps3ApYaBUlZxF6swcCaTUK8rkOVimb103wcKpBF2Z6Inoo5Y1uk695J9ivn3w1cHKVd9HxXI6YZkb6szO3+b7cqBi6s8dXhSnt0b+GR6dvoNhe7hSbanThuq+lUV604xFpcJHRvYw5IXQ4C2ohaCHsXfXvBISscDpSOkzLNxQLIDquXbKv7FubMbbRSvaaUE9Emcr2kwUEZ+huHhLUU+G1xfg+Gr3cRd3G6vfp+/Y2VqvuzB9ci7Vn7nkq/eRLo+lN4Yi3nyOPOOv5gWVzeOddUuy6iVoYE6/Wo2s7qCeSocUNNRCVb2U79FFA7ahSyy86WlRLMeG00mxnHA2culkvUsCZsVyELTTTyg/vb1IyvcYGFdJSixsUd8Idc5lC6OnLi60ruC07kHREOmJRzmg5RdU9oIw23NrsUgaRqbKR1P0+7N1zKMtqx5OeVo3voWmjQiESiIPAS0a2WfD8VVxPMawFp1ztJtZ6uPSJJ5/NXJVFz75Zxj7Btf/6P74le2S2aykknaeNy5Xof0qN2tNYnG4ZrzRk3GKDlP34ojHWpsbuXp63RzGpTVt9EmI6twwvbaxFNVC0MI47JQo/3ZJOB0M8ylmwdlJkJcShVTGcueFBHZSSP0FgsOfR/28R3OsWd4q8rFz24JLKXnCWurziDq5btrb+xHQylPpGj3ReT0bLXIJ0T4gKnvYp/PPrYZnVnisZlg/HYB5Dk+2A8NDx8x+NsQZrXOcROURL145E/xyJGK4lYngpmLh3ib5PGwpaM7eoGOd7uzzhizWe0iL9NeW5o7t420G9BHpdq6QcDHkGdRWSM2qx1ywnOIMaMeIwe1Y0E6KdjK0V4PMLXQy/jHVu8v8BPqe3up/Z3ufcb4038jZq68fxeje6oZmaV8Zi5cFsrRAFew8rz01Rp/c3RcSRw0al8+oDCsnwcLxYy+CykWOIf0A6MlQXwNBLP7YgNmQqng7WvYGn9RJ/T9IBL76q5ebRM6TC+V60bS1py+a1umG6nq0BZnBc2GHfw4js/e6M5uuxVQaMU77xWGZgZcLoZe2V6IJQ6XRaeSjwQ5CSgQ4ig+ipcF90guRCC8kMFyg5A8Z+d8cyXDt2WJnKuFKl9yzsy7OTq4GCkTBEAG/JRj5ooUN6SVYydQXNP5rhnlpOL1GWDDeE4a90tgCOybgsyIdM+yYgZOi8DWfDXKMgi67Irw2MEbBlQvtH0cQXSkBrnr4znTcOmMlKEqNRc4HgZCYZ4JB76ORq3iWJ13dTzxMI+sS3lzdyIJ2MNQXcyPTq+2TQI4JcuK9wV4V9glnPJxGicvJtV7VPn3PvItvLHr3LobXEfdeEv9KHfvFlRd1bf61GILnqIKxtUosVtVcNMSJK3DIFfILwisvXXlYaZ5gML7aUWD0XsbiT4p2CMyrh27k1wZheCAx9KJonxinu0pga3Hts9arK8c7wsWXBpGbSQHnKzUCV6r3+/a3/nyXoWXNB89CTIdKGpUjnIsbPj9T3NghihePxcL7uRt5Vl+8bJZAffz8xLz02gNDQ0L9bLB/BPZZYAeA85zkAPda8Gffn4CXGcmfA64x/PDCiMMYV6Zk5cVePqA6760q/2ujzaxzIxIja9ArP72JIPBp16O5qqeJ41w2ybjEwvl7hXJRY9Y3K+TU1YFL9gOiR2B5MSyfBbzChfL+NRCFviDi74t5ap4XQT4kj8vMeYLLHjAsBcUKhI058x3h4q2nfWvQ7IprLz735XaWDdxr1a8929VHPq7RM0PrGjSJC3Gy1EFPZuio2XvzjIbtiIGj0IlrPZwscVr4QndKWF4V8+dYzOwfQDkE/GgeDhy+MVwcCNfMx/qWJcIR9+WXmdOEUoP2dBZv+YqRbwSEXxlw8PZrv0UY68Vq2xs0+3UT2o3Rb1/X27d6eWkli9ZrOKX+9xUVPc+DSmGYjOJoJYlOMffoFQrPvmgswquNOHYm2T4Ng3t2Ozboa4rF7SV1I4ehcQrYxt/b59QzvJ5ttubXc+GB2vCCXCoYluCuKRxnMeDLq5h9ILG6R/m50jrnJEEujTNv5wZ9c492nedpL/d0pq7TnXY14slralUxc7Y8x7y17GS6NgmOYYYT7D6LycMFp8NWLOy980UvMjg9KfBZ3Iv1k/ripbOcjayfGtqpBf3ZBzNROcSKjNOpi/gszyju3hEurj31a+a4kcDiVn6FaynVqsaUS6H1o7DxRvrXD571zlOskbg/I64LJv14em2oG/EVnqexLSnS35Vr8Is/mvdz8G84dmw5EkUo9CCOIogsGJfbp4BqNDLxsnxKaJ/MsfDEIU4l+rmJz0djuODoSfWJW3m9aO2PGPh9o1w/1416tQNWM86zet7Zz9oCuY4fc/pxNbTH4GA3GIujrSYUcHNVnBZWLyjkjJhbF3XGk3FVaWSHcvTGIJE4QI/QrR4CuvFWj4aZicaLgYwpF8lKIzNeH4BM3D2xX3v066Dmwosg8mIBbAiK/foFFHPC/wea1N7AgU9nJwAAAABJRU5ErkJggg==;imageBorder=#67AB9F;container=0;movable=1;resizable=1;rotatable=1;deletable=1;editable=1;locked=0;connectable=1;" vertex="1" parent="1">
          <mxGeometry x="261" y="211.25" width="18" height="18" as="geometry" />
        </mxCell>
        <mxCell id="0bz0VLMRa1vPZbrDY2g7-39" value="&lt;span style=&quot;font-weight: 700; text-wrap-mode: nowrap;&quot;&gt;...&lt;/span&gt;" style="rounded=0;whiteSpace=wrap;html=1;fillColor=none;strokeColor=none;" vertex="1" parent="1">
          <mxGeometry x="261" y="265" width="19" height="10" as="geometry" />
        </mxCell>
        <mxCell id="0bz0VLMRa1vPZbrDY2g7-55" style="edgeStyle=orthogonalEdgeStyle;rounded=0;orthogonalLoop=1;jettySize=auto;html=1;exitX=0.5;exitY=0;exitDx=0;exitDy=0;entryX=0.5;entryY=0;entryDx=0;entryDy=0;" edge="1" parent="1" source="0bz0VLMRa1vPZbrDY2g7-40" target="0bz0VLMRa1vPZbrDY2g7-53">
          <mxGeometry relative="1" as="geometry" />
        </mxCell>
        <mxCell id="0bz0VLMRa1vPZbrDY2g7-66" style="edgeStyle=orthogonalEdgeStyle;rounded=0;orthogonalLoop=1;jettySize=auto;html=1;exitX=0.5;exitY=0;exitDx=0;exitDy=0;entryX=0;entryY=0.5;entryDx=0;entryDy=0;" edge="1" parent="1" source="0bz0VLMRa1vPZbrDY2g7-40" target="0bz0VLMRa1vPZbrDY2g7-56">
          <mxGeometry relative="1" as="geometry" />
        </mxCell>
        <mxCell id="0bz0VLMRa1vPZbrDY2g7-40" value="&lt;span style=&quot;font-size: 14px;&quot;&gt;&lt;b&gt;Llama 3&lt;/b&gt;&lt;/span&gt;" style="shape=trapezoid;perimeter=trapezoidPerimeter;whiteSpace=wrap;html=1;fixedSize=1;rotation=90;fillColor=light-dark(#d5e3f6, #ededed);strokeColor=light-dark(#98afd0, #ededed);align=center;verticalAlign=middle;fontFamily=Times New Roman;fontSize=12;fontColor=default;strokeWidth=1;movable=1;resizable=1;rotatable=1;deletable=1;editable=1;locked=0;connectable=1;" vertex="1" parent="1">
          <mxGeometry x="270" y="108.25" width="120" height="60" as="geometry" />
        </mxCell>
        <mxCell id="0bz0VLMRa1vPZbrDY2g7-41" value="&lt;div&gt;Q1:Please describe this person&lt;/div&gt;&lt;div&gt;A1:xxxx&lt;/div&gt;&lt;div&gt;Q2:How is his T-shirt&lt;/div&gt;&lt;div style=&quot;&quot;&gt;A2:&lt;/div&gt;" style="text;html=1;align=left;verticalAlign=middle;whiteSpace=wrap;rounded=0;strokeColor=#666666;fontSize=13;direction=south;container=0;fontFamily=Times New Roman;labelBackgroundColor=default;points=[[0,0,0,0,0],[0,0.25,0,0,0],[0,0.5,0,0,0],[0,0.75,0,0,0],[0,1,0,0,0],[0.25,0,0,0,0],[0.25,1,0,0,0],[0.5,0,0,0,0],[0.5,1,0,0,0],[0.75,0,0,0,0],[0.75,1,0,0,0],[1,0,0,0,0],[1,0.25,0,0,0],[1,0.5,0,0,0],[1,0.75,0,0,0],[1,1,0,0,0]];fillColor=#f5f5f5;movable=1;resizable=1;rotatable=1;deletable=1;editable=1;locked=0;connectable=1;strokeWidth=1;fontColor=#333333;" vertex="1" parent="1">
          <mxGeometry x="110" y="101.25" width="166" height="70" as="geometry" />
        </mxCell>
        <mxCell id="0bz0VLMRa1vPZbrDY2g7-45" value="" style="shape=flexArrow;endArrow=block;html=1;rounded=0;endSize=3.3522891566265063;startSize=4;startFill=0;endWidth=9.438072289156628;width=4.16;movable=1;resizable=1;rotatable=1;deletable=1;editable=1;locked=0;connectable=1;fillColor=default;" edge="1" parent="1">
          <mxGeometry width="50" height="50" relative="1" as="geometry">
            <mxPoint x="278" y="138.11" as="sourcePoint" />
            <mxPoint x="298" y="138.11" as="targetPoint" />
          </mxGeometry>
        </mxCell>
        <mxCell id="0bz0VLMRa1vPZbrDY2g7-54" style="edgeStyle=orthogonalEdgeStyle;rounded=0;orthogonalLoop=1;jettySize=auto;html=1;exitX=0.173;exitY=-0.05;exitDx=0;exitDy=0;entryX=0.5;entryY=1;entryDx=0;entryDy=0;exitPerimeter=0;" edge="1" parent="1" source="0bz0VLMRa1vPZbrDY2g7-46" target="0bz0VLMRa1vPZbrDY2g7-53">
          <mxGeometry relative="1" as="geometry" />
        </mxCell>
        <mxCell id="0bz0VLMRa1vPZbrDY2g7-68" style="edgeStyle=orthogonalEdgeStyle;rounded=0;orthogonalLoop=1;jettySize=auto;html=1;exitX=0.75;exitY=0;exitDx=0;exitDy=0;entryX=0.5;entryY=1;entryDx=0;entryDy=0;" edge="1" parent="1" source="0bz0VLMRa1vPZbrDY2g7-46" target="0bz0VLMRa1vPZbrDY2g7-65">
          <mxGeometry relative="1" as="geometry" />
        </mxCell>
        <mxCell id="0bz0VLMRa1vPZbrDY2g7-46" value="RGBT&lt;div&gt;fusion&lt;/div&gt;" style="rounded=1;whiteSpace=wrap;html=1;fillColor=#fff2cc;strokeColor=#d6b656;fontFamily=Times New Roman;" vertex="1" parent="1">
          <mxGeometry x="380.99" y="256" width="138.01" height="34" as="geometry" />
        </mxCell>
        <mxCell id="0bz0VLMRa1vPZbrDY2g7-47" value="" style="endArrow=classic;html=1;rounded=0;" edge="1" parent="1">
          <mxGeometry width="50" height="50" relative="1" as="geometry">
            <mxPoint x="360.99" y="272.76" as="sourcePoint" />
            <mxPoint x="380.99" y="272.76" as="targetPoint" />
          </mxGeometry>
        </mxCell>
        <mxCell id="0bz0VLMRa1vPZbrDY2g7-53" value="global&amp;nbsp;&lt;div&gt;alignment&amp;nbsp;&lt;/div&gt;" style="rounded=1;whiteSpace=wrap;html=1;fontSize=11;fontFamily=Times New Roman;fillColor=#f5f5f5;strokeColor=#666666;fontColor=#333333;" vertex="1" parent="1">
          <mxGeometry x="374.87" y="184" width="61" height="31.25" as="geometry" />
        </mxCell>
        <mxCell id="0bz0VLMRa1vPZbrDY2g7-79" style="edgeStyle=orthogonalEdgeStyle;rounded=0;orthogonalLoop=1;jettySize=auto;html=1;exitX=0.5;exitY=1;exitDx=0;exitDy=0;entryX=0.5;entryY=0;entryDx=0;entryDy=0;" edge="1" parent="1" source="0bz0VLMRa1vPZbrDY2g7-56" target="0bz0VLMRa1vPZbrDY2g7-75">
          <mxGeometry relative="1" as="geometry" />
        </mxCell>
        <mxCell id="0bz0VLMRa1vPZbrDY2g7-56" value="cross-attention" style="rounded=1;whiteSpace=wrap;html=1;fillColor=#b1ddf0;strokeColor=#10739e;" vertex="1" parent="1">
          <mxGeometry x="442" y="128.25" width="82" height="20" as="geometry" />
        </mxCell>
        <mxCell id="0bz0VLMRa1vPZbrDY2g7-78" style="edgeStyle=orthogonalEdgeStyle;rounded=0;orthogonalLoop=1;jettySize=auto;html=1;exitX=0.5;exitY=0;exitDx=0;exitDy=0;entryX=0.5;entryY=1;entryDx=0;entryDy=0;" edge="1" parent="1" source="0bz0VLMRa1vPZbrDY2g7-65" target="0bz0VLMRa1vPZbrDY2g7-75">
          <mxGeometry relative="1" as="geometry" />
        </mxCell>
        <mxCell id="0bz0VLMRa1vPZbrDY2g7-65" value="cross-attention" style="rounded=1;whiteSpace=wrap;html=1;fillColor=#b1ddf0;strokeColor=#10739e;" vertex="1" parent="1">
          <mxGeometry x="442" y="222.25" width="82" height="20" as="geometry" />
        </mxCell>
        <mxCell id="0bz0VLMRa1vPZbrDY2g7-72" style="edgeStyle=orthogonalEdgeStyle;rounded=0;orthogonalLoop=1;jettySize=auto;html=1;exitX=0.5;exitY=1;exitDx=0;exitDy=0;entryX=1;entryY=0.5;entryDx=0;entryDy=0;" edge="1" parent="1" source="0bz0VLMRa1vPZbrDY2g7-61" target="0bz0VLMRa1vPZbrDY2g7-65">
          <mxGeometry relative="1" as="geometry">
            <Array as="points">
              <mxPoint x="551" y="232" />
            </Array>
          </mxGeometry>
        </mxCell>
        <mxCell id="0bz0VLMRa1vPZbrDY2g7-74" style="edgeStyle=orthogonalEdgeStyle;rounded=0;orthogonalLoop=1;jettySize=auto;html=1;exitX=0.5;exitY=0;exitDx=0;exitDy=0;entryX=1;entryY=0.5;entryDx=0;entryDy=0;" edge="1" parent="1" source="0bz0VLMRa1vPZbrDY2g7-61" target="0bz0VLMRa1vPZbrDY2g7-56">
          <mxGeometry relative="1" as="geometry">
            <Array as="points">
              <mxPoint x="551" y="138" />
            </Array>
          </mxGeometry>
        </mxCell>
        <mxCell id="0bz0VLMRa1vPZbrDY2g7-75" value="local alignment&amp;nbsp;" style="rounded=1;whiteSpace=wrap;html=1;fontSize=11;fontFamily=Times New Roman;fillColor=#f5f5f5;strokeColor=#666666;fontColor=#333333;" vertex="1" parent="1">
          <mxGeometry x="452.5" y="167.88" width="61" height="31.25" as="geometry" />
        </mxCell>
        <mxCell id="0bz0VLMRa1vPZbrDY2g7-61" value="" style="rounded=0;whiteSpace=wrap;html=1;strokeColor=none;" vertex="1" parent="1">
          <mxGeometry x="538" y="159" width="25" height="56" as="geometry" />
        </mxCell>
        <mxCell id="0bz0VLMRa1vPZbrDY2g7-58" value="" style="rounded=1;whiteSpace=wrap;html=1;fillColor=#008a00;fontColor=#ffffff;strokeColor=#005700;" vertex="1" parent="1">
          <mxGeometry x="539.13" y="166.88" width="22.87" height="11" as="geometry" />
        </mxCell>
        <mxCell id="0bz0VLMRa1vPZbrDY2g7-59" value="" style="rounded=1;whiteSpace=wrap;html=1;fillColor=#fa6800;fontColor=#000000;strokeColor=#C73500;" vertex="1" parent="1">
          <mxGeometry x="539.13" y="198.13" width="22.87" height="10" as="geometry" />
        </mxCell>
        <mxCell id="0bz0VLMRa1vPZbrDY2g7-60" value="" style="rounded=1;whiteSpace=wrap;html=1;fillColor=#1ba1e2;fontColor=#ffffff;strokeColor=#006EAF;" vertex="1" parent="1">
          <mxGeometry x="539.13" y="183" width="22.87" height="10.75" as="geometry" />
        </mxCell>
      </root>
    </mxGraphModel>
  </diagram>
</mxfile>
